<mxfile host="app.diagrams.net" modified="2023-12-30T16:44:36.546Z" agent="Mozilla/5.0 (Windows NT 10.0; Win64; x64) AppleWebKit/537.36 (KHTML, like Gecko) Chrome/119.0.0.0 Safari/537.36" etag="9LWzbhmyyLx26adoKP_1" version="22.1.7" type="device">
  <diagram name="microarchitecture" id="15ygM7w3dV-8MU-O024R">
    <mxGraphModel dx="2107" dy="683" grid="1" gridSize="10" guides="1" tooltips="1" connect="1" arrows="1" fold="1" page="1" pageScale="1" pageWidth="850" pageHeight="1100" math="0" shadow="0">
      <root>
        <mxCell id="0" />
        <mxCell id="1" parent="0" />
        <mxCell id="EuI0nip87wkuVk568HCP-1" value="" style="edgeStyle=orthogonalEdgeStyle;shape=connector;rounded=0;orthogonalLoop=1;jettySize=auto;html=1;exitX=0.5;exitY=1;exitDx=0;exitDy=0;exitPerimeter=0;labelBackgroundColor=default;strokeColor=#808080;align=center;verticalAlign=middle;fontFamily=Helvetica;fontSize=11;fontColor=default;endArrow=open;entryX=0.5;entryY=1;entryDx=0;entryDy=0;entryPerimeter=0;endFill=0;" parent="1" target="EuI0nip87wkuVk568HCP-3" edge="1">
          <mxGeometry relative="1" as="geometry">
            <mxPoint x="454.5" y="420" as="sourcePoint" />
          </mxGeometry>
        </mxCell>
        <mxCell id="EuI0nip87wkuVk568HCP-2" value="&lt;font&gt;rf_en&lt;/font&gt;" style="edgeLabel;html=1;align=center;verticalAlign=middle;resizable=0;points=[];fontSize=11;fontFamily=Helvetica;fontColor=#808080;" parent="EuI0nip87wkuVk568HCP-1" connectable="0" vertex="1">
          <mxGeometry x="-0.7395" relative="1" as="geometry">
            <mxPoint y="6" as="offset" />
          </mxGeometry>
        </mxCell>
        <mxCell id="EuI0nip87wkuVk568HCP-3" value="&lt;b style=&quot;font-size: 10px;&quot;&gt;Register &lt;br&gt;File&lt;/b&gt;" style="rounded=0;whiteSpace=wrap;html=1;points=[[0,0,0,0,0],[0,0.25,0,0,0],[0,0.5,0,0,0],[0,0.75,0,0,0],[0,1,0,0,0],[0.25,0,0,0,0],[0.25,1,0,0,0],[0.5,0,0,0,0],[0.5,1,0,0,0],[0.75,0,0,0,0],[0.75,1,0,0,0],[1,0,0,0,0],[1,0.25,0,0,0],[1,0.5,0,0,0],[1,0.63,0,0,0],[1,0.75,0,0,0],[1,1,0,0,0]];fillColor=#CC0066;" parent="1" vertex="1">
          <mxGeometry x="405" y="220" width="100" height="170" as="geometry" />
        </mxCell>
        <mxCell id="EuI0nip87wkuVk568HCP-4" value="&lt;b style=&quot;font-size: 9px;&quot;&gt;Instruction &lt;br&gt;Memory&lt;/b&gt;" style="rounded=0;whiteSpace=wrap;html=1;fillColor=#E224FF;" parent="1" vertex="1">
          <mxGeometry x="45" y="220" width="95" height="165" as="geometry" />
        </mxCell>
        <mxCell id="EuI0nip87wkuVk568HCP-5" value="&lt;font style=&quot;font-size: 12px;&quot;&gt;&lt;b&gt;Instruction&lt;br&gt;Decoder&lt;/b&gt;&lt;/font&gt;" style="rounded=0;whiteSpace=wrap;html=1;fillColor=#CC0066;" parent="1" vertex="1">
          <mxGeometry x="235" y="230" width="120" height="140" as="geometry" />
        </mxCell>
        <mxCell id="EuI0nip87wkuVk568HCP-7" value="&lt;font style=&quot;font-size: 8px;&quot;&gt;rs1&lt;/font&gt;" style="text;html=1;strokeColor=none;fillColor=none;align=center;verticalAlign=middle;whiteSpace=wrap;rounded=0;" parent="1" vertex="1">
          <mxGeometry x="405" y="240" width="20" height="10" as="geometry" />
        </mxCell>
        <mxCell id="EuI0nip87wkuVk568HCP-8" value="&lt;font style=&quot;font-size: 8px;&quot;&gt;rs2&lt;/font&gt;" style="text;html=1;strokeColor=none;fillColor=none;align=center;verticalAlign=middle;whiteSpace=wrap;rounded=0;" parent="1" vertex="1">
          <mxGeometry x="405" y="265" width="20" as="geometry" />
        </mxCell>
        <mxCell id="b3uctcBHCQjBajmpuFDN-37" style="edgeStyle=orthogonalEdgeStyle;rounded=0;orthogonalLoop=1;jettySize=auto;html=1;exitX=0;exitY=0.5;exitDx=0;exitDy=0;entryX=0.09;entryY=0.609;entryDx=0;entryDy=0;strokeColor=#66FFFF;entryPerimeter=0;" parent="1" target="b3uctcBHCQjBajmpuFDN-30" edge="1">
          <mxGeometry relative="1" as="geometry">
            <mxPoint x="381.24000000000024" y="280" as="sourcePoint" />
            <mxPoint x="618.4" y="45.400000000000006" as="targetPoint" />
            <Array as="points">
              <mxPoint x="362" y="280" />
              <mxPoint x="362" y="46" />
              <mxPoint x="617" y="46" />
            </Array>
          </mxGeometry>
        </mxCell>
        <mxCell id="EuI0nip87wkuVk568HCP-9" value="&lt;font style=&quot;font-size: 8px;&quot;&gt;rd&lt;/font&gt;" style="text;html=1;strokeColor=none;fillColor=none;align=center;verticalAlign=middle;whiteSpace=wrap;rounded=0;" parent="1" vertex="1">
          <mxGeometry x="405" y="280" width="20" height="10" as="geometry" />
        </mxCell>
        <mxCell id="EuI0nip87wkuVk568HCP-10" value="&lt;font style=&quot;font-size: 8px;&quot;&gt;wdata&lt;/font&gt;" style="text;html=1;strokeColor=none;fillColor=none;align=center;verticalAlign=middle;whiteSpace=wrap;rounded=0;" parent="1" vertex="1">
          <mxGeometry x="405" y="341.1" width="30" height="10" as="geometry" />
        </mxCell>
        <mxCell id="EuI0nip87wkuVk568HCP-11" value="" style="endArrow=open;html=1;rounded=0;entryX=0;entryY=0.5;entryDx=0;entryDy=0;exitX=1;exitY=0.5;exitDx=0;exitDy=0;endFill=0;" parent="1" source="EuI0nip87wkuVk568HCP-14" target="EuI0nip87wkuVk568HCP-7" edge="1">
          <mxGeometry width="50" height="50" relative="1" as="geometry">
            <mxPoint x="355" y="250" as="sourcePoint" />
            <mxPoint x="405" y="200" as="targetPoint" />
          </mxGeometry>
        </mxCell>
        <mxCell id="EuI0nip87wkuVk568HCP-12" value="" style="endArrow=open;html=1;rounded=0;entryX=-0.004;entryY=0;entryDx=0;entryDy=0;entryPerimeter=0;exitX=1;exitY=0.5;exitDx=0;exitDy=0;endFill=0;" parent="1" source="EuI0nip87wkuVk568HCP-16" target="EuI0nip87wkuVk568HCP-8" edge="1">
          <mxGeometry width="50" height="50" relative="1" as="geometry">
            <mxPoint x="355" y="265" as="sourcePoint" />
            <mxPoint x="415" y="245" as="targetPoint" />
          </mxGeometry>
        </mxCell>
        <mxCell id="b3uctcBHCQjBajmpuFDN-26" style="edgeStyle=orthogonalEdgeStyle;rounded=0;orthogonalLoop=1;jettySize=auto;html=1;strokeColor=#0000FF;entryX=0.048;entryY=0.5;entryDx=0;entryDy=0;entryPerimeter=0;" parent="1" target="b3uctcBHCQjBajmpuFDN-29" edge="1">
          <mxGeometry relative="1" as="geometry">
            <mxPoint x="621.7900000000002" y="20.01" as="targetPoint" />
            <Array as="points">
              <mxPoint x="370" y="25" />
            </Array>
            <mxPoint x="370.05" y="245.2" as="sourcePoint" />
          </mxGeometry>
        </mxCell>
        <mxCell id="EuI0nip87wkuVk568HCP-14" value="&lt;font style=&quot;font-size: 8px;&quot;&gt;rs1&lt;/font&gt;" style="text;html=1;strokeColor=none;fillColor=none;align=center;verticalAlign=middle;whiteSpace=wrap;rounded=0;" parent="1" vertex="1">
          <mxGeometry x="335" y="240" width="20" height="10" as="geometry" />
        </mxCell>
        <mxCell id="EuI0nip87wkuVk568HCP-15" value="&lt;font style=&quot;font-size: 8px;&quot;&gt;rd&lt;/font&gt;" style="text;html=1;strokeColor=none;fillColor=none;align=center;verticalAlign=middle;whiteSpace=wrap;rounded=0;" parent="1" vertex="1">
          <mxGeometry x="335" y="280" width="20" height="10" as="geometry" />
        </mxCell>
        <mxCell id="EuI0nip87wkuVk568HCP-16" value="&lt;font style=&quot;font-size: 8px;&quot;&gt;rs2&lt;/font&gt;" style="text;html=1;strokeColor=none;fillColor=none;align=center;verticalAlign=middle;whiteSpace=wrap;rounded=0;" parent="1" vertex="1">
          <mxGeometry x="335" y="260" width="20" height="10" as="geometry" />
        </mxCell>
        <mxCell id="EuI0nip87wkuVk568HCP-17" value="&lt;font style=&quot;font-size: 8px;&quot;&gt;inst&lt;/font&gt;" style="text;html=1;strokeColor=none;fillColor=none;align=center;verticalAlign=middle;whiteSpace=wrap;rounded=0;" parent="1" vertex="1">
          <mxGeometry x="235" y="290" width="20" height="10" as="geometry" />
        </mxCell>
        <mxCell id="xwV4w1sUFIsXvJg-IXbo-16" style="edgeStyle=orthogonalEdgeStyle;rounded=0;orthogonalLoop=1;jettySize=auto;html=1;exitX=1;exitY=0.75;exitDx=0;exitDy=0;entryX=0;entryY=0.5;entryDx=0;entryDy=0;" parent="1" source="EuI0nip87wkuVk568HCP-18" target="xwV4w1sUFIsXvJg-IXbo-10" edge="1">
          <mxGeometry relative="1" as="geometry" />
        </mxCell>
        <mxCell id="EuI0nip87wkuVk568HCP-18" value="&lt;font style=&quot;font-size: 8px;&quot;&gt;inst&lt;/font&gt;" style="text;html=1;strokeColor=none;fillColor=none;align=center;verticalAlign=middle;whiteSpace=wrap;rounded=0;" parent="1" vertex="1">
          <mxGeometry x="120" y="290" width="20" height="10" as="geometry" />
        </mxCell>
        <mxCell id="EuI0nip87wkuVk568HCP-19" style="edgeStyle=orthogonalEdgeStyle;rounded=0;orthogonalLoop=1;jettySize=auto;html=1;entryX=0.5;entryY=0;entryDx=0;entryDy=0;endArrow=open;endFill=0;" parent="1" source="EuI0nip87wkuVk568HCP-20" target="EuI0nip87wkuVk568HCP-28" edge="1">
          <mxGeometry relative="1" as="geometry">
            <mxPoint x="375" y="600.919540229885" as="targetPoint" />
            <Array as="points">
              <mxPoint x="260" y="570" />
              <mxPoint x="260" y="570" />
            </Array>
          </mxGeometry>
        </mxCell>
        <mxCell id="EuI0nip87wkuVk568HCP-20" value="&lt;font style=&quot;font-size: 8px;&quot;&gt;opcode&lt;/font&gt;" style="text;html=1;strokeColor=none;fillColor=none;align=center;verticalAlign=middle;whiteSpace=wrap;rounded=0;" parent="1" vertex="1">
          <mxGeometry x="245" y="350" width="30" height="20" as="geometry" />
        </mxCell>
        <mxCell id="EuI0nip87wkuVk568HCP-21" style="edgeStyle=orthogonalEdgeStyle;rounded=0;orthogonalLoop=1;jettySize=auto;html=1;exitX=0.5;exitY=1;exitDx=0;exitDy=0;entryX=0.5;entryY=0;entryDx=0;entryDy=0;endArrow=open;endFill=0;" parent="1" source="EuI0nip87wkuVk568HCP-22" target="EuI0nip87wkuVk568HCP-29" edge="1">
          <mxGeometry relative="1" as="geometry" />
        </mxCell>
        <mxCell id="EuI0nip87wkuVk568HCP-22" value="&lt;font style=&quot;font-size: 8px;&quot;&gt;funct3&lt;/font&gt;" style="text;html=1;strokeColor=none;fillColor=none;align=center;verticalAlign=middle;whiteSpace=wrap;rounded=0;" parent="1" vertex="1">
          <mxGeometry x="280" y="350" width="30" height="20" as="geometry" />
        </mxCell>
        <mxCell id="EuI0nip87wkuVk568HCP-23" style="edgeStyle=orthogonalEdgeStyle;rounded=0;orthogonalLoop=1;jettySize=auto;html=1;exitX=0.5;exitY=1;exitDx=0;exitDy=0;entryX=0.5;entryY=0;entryDx=0;entryDy=0;endArrow=open;endFill=0;" parent="1" source="EuI0nip87wkuVk568HCP-24" target="EuI0nip87wkuVk568HCP-30" edge="1">
          <mxGeometry relative="1" as="geometry" />
        </mxCell>
        <mxCell id="EuI0nip87wkuVk568HCP-24" value="&lt;font style=&quot;font-size: 8px;&quot;&gt;funct7&lt;/font&gt;" style="text;html=1;strokeColor=none;fillColor=none;align=center;verticalAlign=middle;whiteSpace=wrap;rounded=0;" parent="1" vertex="1">
          <mxGeometry x="315" y="350" width="30" height="20" as="geometry" />
        </mxCell>
        <mxCell id="EuI0nip87wkuVk568HCP-25" style="edgeStyle=orthogonalEdgeStyle;rounded=0;orthogonalLoop=1;jettySize=auto;html=1;entryX=0.57;entryY=0.83;entryDx=0;entryDy=0;entryPerimeter=0;strokeColor=#808080;endArrow=open;endFill=0;" parent="1" target="EuI0nip87wkuVk568HCP-32" edge="1">
          <mxGeometry relative="1" as="geometry">
            <mxPoint x="685" y="400" as="targetPoint" />
            <mxPoint x="720" y="370" as="sourcePoint" />
          </mxGeometry>
        </mxCell>
        <mxCell id="EuI0nip87wkuVk568HCP-26" value="&lt;font&gt;aluop&lt;/font&gt;" style="edgeLabel;html=1;align=center;verticalAlign=middle;resizable=0;points=[];fontSize=11;fontFamily=Helvetica;fontColor=#808080;" parent="EuI0nip87wkuVk568HCP-25" connectable="0" vertex="1">
          <mxGeometry x="-0.8885" relative="1" as="geometry">
            <mxPoint x="1" as="offset" />
          </mxGeometry>
        </mxCell>
        <mxCell id="EuI0nip87wkuVk568HCP-27" value="&lt;font size=&quot;1&quot; style=&quot;&quot;&gt;&lt;b style=&quot;font-size: 14px;&quot;&gt;Controller&lt;/b&gt;&lt;/font&gt;" style="rounded=0;whiteSpace=wrap;html=1;points=[[0,0,0,0,0],[0,0.25,0,0,0],[0,0.5,0,0,0],[0,0.75,0,0,0],[0,1,0,0,0],[0.25,0,0,0,0],[0.25,1,0,0,0],[0.5,0,0,0,0],[0.5,1,0,0,0],[0.75,0,0,0,0],[0.75,1,0,0,0],[1,0.12,0,0,0],[1,0.31,0,0,0],[1,0.5,0,0,0],[1,0.69,0,0,0],[1,0.88,0,0,0]];fillColor=#808080;" parent="1" vertex="1">
          <mxGeometry x="235" y="570" width="120" height="180" as="geometry" />
        </mxCell>
        <mxCell id="EuI0nip87wkuVk568HCP-28" value="&lt;font style=&quot;font-size: 8px;&quot;&gt;opcode&lt;/font&gt;" style="text;html=1;strokeColor=none;fillColor=none;align=center;verticalAlign=middle;whiteSpace=wrap;rounded=0;" parent="1" vertex="1">
          <mxGeometry x="245" y="570" width="30" height="20" as="geometry" />
        </mxCell>
        <mxCell id="EuI0nip87wkuVk568HCP-29" value="&lt;font style=&quot;font-size: 8px;&quot;&gt;funct3&lt;/font&gt;" style="text;html=1;strokeColor=none;fillColor=none;align=center;verticalAlign=middle;whiteSpace=wrap;rounded=0;" parent="1" vertex="1">
          <mxGeometry x="280" y="570" width="30" height="20" as="geometry" />
        </mxCell>
        <mxCell id="EuI0nip87wkuVk568HCP-30" value="&lt;font style=&quot;font-size: 8px;&quot;&gt;funct7&lt;/font&gt;" style="text;html=1;strokeColor=none;fillColor=none;align=center;verticalAlign=middle;whiteSpace=wrap;rounded=0;horizontal=1;" parent="1" vertex="1">
          <mxGeometry x="315" y="570" width="30" height="20" as="geometry" />
        </mxCell>
        <mxCell id="EuI0nip87wkuVk568HCP-32" value="" style="verticalLabelPosition=bottom;verticalAlign=top;html=1;shape=mxgraph.basic.polygon;polyCoords=[[0,0],[1,0.3],[1,0.5],[1,0.7],[0,1],[0,0.6],[0.2,0.5],[0,0.4]];polyline=0;shadow=0;aspect=fixed;points=[[0,0.21,0,0,0],[0,0.79,0,0,0],[0.57,0.83,0,0,0],[1,0.5,0,0,0]];fillColor=#33FF33;" parent="1" vertex="1">
          <mxGeometry x="675" y="240" width="78.57" height="110" as="geometry" />
        </mxCell>
        <mxCell id="EuI0nip87wkuVk568HCP-33" style="edgeStyle=orthogonalEdgeStyle;rounded=0;orthogonalLoop=1;jettySize=auto;html=1;exitDx=0;exitDy=0;entryX=0.75;entryY=1;entryDx=0;entryDy=0;endArrow=open;endFill=0;" parent="1" target="EuI0nip87wkuVk568HCP-71" edge="1">
          <mxGeometry relative="1" as="geometry">
            <Array as="points">
              <mxPoint x="545" y="263" />
            </Array>
            <mxPoint x="545" y="262.1" as="sourcePoint" />
          </mxGeometry>
        </mxCell>
        <mxCell id="EuI0nip87wkuVk568HCP-34" style="edgeStyle=orthogonalEdgeStyle;rounded=0;orthogonalLoop=1;jettySize=auto;html=1;exitX=1;exitY=0.5;exitDx=0;exitDy=0;entryX=0.6;entryY=1;entryDx=0;entryDy=0;entryPerimeter=0;endArrow=open;endFill=0;fillColor=#e1d5e7;strokeColor=#000000;" parent="1" source="EuI0nip87wkuVk568HCP-37" target="EuI0nip87wkuVk568HCP-126" edge="1">
          <mxGeometry relative="1" as="geometry">
            <mxPoint x="1067.0549999999998" y="333.2950000000001" as="targetPoint" />
            <Array as="points">
              <mxPoint x="986" y="303" />
              <mxPoint x="1069" y="303" />
            </Array>
          </mxGeometry>
        </mxCell>
        <mxCell id="EuI0nip87wkuVk568HCP-37" value="&lt;font style=&quot;font-size: 8px;&quot;&gt;&lt;b&gt;Data&lt;br&gt;Memory&lt;/b&gt;&lt;/font&gt;" style="whiteSpace=wrap;html=1;fillColor=#FF6666;" parent="1" vertex="1">
          <mxGeometry x="906.4299999999998" y="227.5" width="90" height="150" as="geometry" />
        </mxCell>
        <mxCell id="EuI0nip87wkuVk568HCP-38" style="edgeStyle=orthogonalEdgeStyle;shape=connector;rounded=0;orthogonalLoop=1;jettySize=auto;html=1;exitX=0.5;exitY=0;exitDx=0;exitDy=0;labelBackgroundColor=default;strokeColor=#000000;align=center;verticalAlign=middle;fontFamily=Helvetica;fontSize=11;fontColor=default;endArrow=open;entryX=0;entryY=0.75;entryDx=0;entryDy=0;entryPerimeter=0;endFill=0;" parent="1" source="EuI0nip87wkuVk568HCP-126" target="EuI0nip87wkuVk568HCP-3" edge="1">
          <mxGeometry relative="1" as="geometry">
            <mxPoint x="825" y="541.3333740234375" as="targetPoint" />
            <mxPoint x="1095.8049999999998" y="302.4949999999999" as="sourcePoint" />
            <Array as="points">
              <mxPoint x="1091" y="302" />
              <mxPoint x="1135" y="302" />
              <mxPoint x="1135" y="400" />
              <mxPoint x="375" y="400" />
              <mxPoint x="375" y="348" />
            </Array>
          </mxGeometry>
        </mxCell>
        <mxCell id="EuI0nip87wkuVk568HCP-39" value="" style="edgeStyle=orthogonalEdgeStyle;rounded=0;orthogonalLoop=1;jettySize=auto;html=1;exitX=1;exitY=0.5;exitDx=0;exitDy=0;entryDx=0;entryDy=0;endArrow=none;endFill=0;entryX=0.434;entryY=0.63;entryPerimeter=0;exitPerimeter=0;" parent="1" source="EuI0nip87wkuVk568HCP-32" target="EuI0nip87wkuVk568HCP-42" edge="1">
          <mxGeometry relative="1" as="geometry">
            <mxPoint x="804.9999999999997" y="295" as="sourcePoint" />
            <mxPoint x="804.9999999999998" y="304.86" as="targetPoint" />
            <Array as="points">
              <mxPoint x="785" y="295" />
              <mxPoint x="785" y="295" />
            </Array>
          </mxGeometry>
        </mxCell>
        <mxCell id="EuI0nip87wkuVk568HCP-40" style="edgeStyle=orthogonalEdgeStyle;rounded=0;orthogonalLoop=1;jettySize=auto;html=1;entryX=0.4;entryY=1;entryDx=0;entryDy=0;entryPerimeter=0;endArrow=open;endFill=0;" parent="1" source="EuI0nip87wkuVk568HCP-104" target="EuI0nip87wkuVk568HCP-126" edge="1">
          <mxGeometry relative="1" as="geometry">
            <mxPoint x="1067.0549999999998" y="302.4949999999999" as="targetPoint" />
            <Array as="points">
              <mxPoint x="1016" y="200" />
              <mxPoint x="1016" y="290" />
              <mxPoint x="1069" y="290" />
            </Array>
          </mxGeometry>
        </mxCell>
        <mxCell id="EuI0nip87wkuVk568HCP-41" style="edgeStyle=orthogonalEdgeStyle;shape=connector;rounded=0;orthogonalLoop=1;jettySize=auto;html=1;entryX=0;entryY=0.5;entryDx=0;entryDy=0;labelBackgroundColor=default;strokeColor=#0000ff;align=center;verticalAlign=middle;fontFamily=Helvetica;fontSize=11;fontColor=default;endArrow=open;endFill=0;" parent="1" source="EuI0nip87wkuVk568HCP-42" target="EuI0nip87wkuVk568HCP-113" edge="1">
          <mxGeometry relative="1" as="geometry">
            <Array as="points">
              <mxPoint x="835" y="295" />
              <mxPoint x="835" y="515" />
            </Array>
          </mxGeometry>
        </mxCell>
        <mxCell id="xwV4w1sUFIsXvJg-IXbo-2" value="" style="edgeStyle=orthogonalEdgeStyle;rounded=0;orthogonalLoop=1;jettySize=auto;html=1;entryX=0.002;entryY=0.447;entryDx=0;entryDy=0;entryPerimeter=0;" parent="1" source="EuI0nip87wkuVk568HCP-42" target="EuI0nip87wkuVk568HCP-37" edge="1">
          <mxGeometry relative="1" as="geometry" />
        </mxCell>
        <mxCell id="EuI0nip87wkuVk568HCP-42" value="" style="shape=waypoint;sketch=0;fillStyle=solid;size=6;pointerEvents=1;points=[];fillColor=none;resizable=0;rotatable=0;perimeter=centerPerimeter;snapToPoint=1;" parent="1" vertex="1">
          <mxGeometry x="824.4299999999998" y="285" width="20" height="20" as="geometry" />
        </mxCell>
        <mxCell id="EuI0nip87wkuVk568HCP-43" value="" style="edgeStyle=orthogonalEdgeStyle;rounded=0;orthogonalLoop=1;jettySize=auto;html=1;entryX=0;entryY=0.5;entryDx=0;entryDy=0;endArrow=open;endFill=0;" parent="1" source="EuI0nip87wkuVk568HCP-51" target="EuI0nip87wkuVk568HCP-4" edge="1">
          <mxGeometry x="-0.5" y="-17" relative="1" as="geometry">
            <mxPoint as="offset" />
          </mxGeometry>
        </mxCell>
        <mxCell id="EuI0nip87wkuVk568HCP-44" value="&lt;font style=&quot;font-size: 8px;&quot;&gt;&lt;b&gt;Program&lt;br&gt;Counter&lt;/b&gt;&lt;/font&gt;" style="rounded=0;whiteSpace=wrap;html=1;fillColor=#E224FF;" parent="1" vertex="1">
          <mxGeometry x="-85" y="255.93" width="70" height="93.13" as="geometry" />
        </mxCell>
        <mxCell id="EuI0nip87wkuVk568HCP-45" value="" style="triangle;whiteSpace=wrap;html=1;rotation=-90;fillColor=#E224FF;" parent="1" vertex="1">
          <mxGeometry x="-60" y="329.05999999999995" width="20" height="20" as="geometry" />
        </mxCell>
        <mxCell id="EuI0nip87wkuVk568HCP-46" value="&lt;b&gt;+&lt;/b&gt;" style="ellipse;whiteSpace=wrap;html=1;aspect=fixed;fillColor=#ffcccc;strokeColor=#36393d;" parent="1" vertex="1">
          <mxGeometry x="951.4299999999998" y="135" width="30" height="30" as="geometry" />
        </mxCell>
        <mxCell id="EuI0nip87wkuVk568HCP-47" style="edgeStyle=orthogonalEdgeStyle;rounded=0;orthogonalLoop=1;jettySize=auto;html=1;entryX=0.2;entryY=1;entryDx=0;entryDy=0;entryPerimeter=0;endArrow=open;endFill=0;" parent="1" source="EuI0nip87wkuVk568HCP-46" target="EuI0nip87wkuVk568HCP-126" edge="1">
          <mxGeometry relative="1" as="geometry">
            <mxPoint x="1067.0549999999998" y="271.6949999999997" as="targetPoint" />
            <Array as="points">
              <mxPoint x="1046" y="150" />
              <mxPoint x="1046" y="275" />
            </Array>
          </mxGeometry>
        </mxCell>
        <mxCell id="EuI0nip87wkuVk568HCP-48" value="" style="edgeStyle=orthogonalEdgeStyle;rounded=0;orthogonalLoop=1;jettySize=auto;html=1;entryDx=0;entryDy=0;endArrow=none;endFill=0;" parent="1" source="EuI0nip87wkuVk568HCP-44" target="EuI0nip87wkuVk568HCP-51" edge="1">
          <mxGeometry relative="1" as="geometry">
            <mxPoint x="-15" y="302" as="sourcePoint" />
            <mxPoint x="65" y="303" as="targetPoint" />
          </mxGeometry>
        </mxCell>
        <mxCell id="EuI0nip87wkuVk568HCP-49" style="edgeStyle=orthogonalEdgeStyle;rounded=0;orthogonalLoop=1;jettySize=auto;html=1;entryX=0;entryY=0.5;entryDx=0;entryDy=0;endArrow=open;endFill=0;" parent="1" source="EuI0nip87wkuVk568HCP-124" target="EuI0nip87wkuVk568HCP-46" edge="1">
          <mxGeometry relative="1" as="geometry">
            <mxPoint x="816.43" y="160" as="targetPoint" />
            <Array as="points">
              <mxPoint x="816.43" y="150" />
              <mxPoint x="816.43" y="150" />
            </Array>
          </mxGeometry>
        </mxCell>
        <mxCell id="EuI0nip87wkuVk568HCP-50" style="edgeStyle=orthogonalEdgeStyle;rounded=0;orthogonalLoop=1;jettySize=auto;html=1;entryX=1;entryY=0.5;entryDx=0;entryDy=0;endArrow=open;endFill=0;" parent="1" source="EuI0nip87wkuVk568HCP-51" target="EuI0nip87wkuVk568HCP-53" edge="1">
          <mxGeometry relative="1" as="geometry">
            <Array as="points">
              <mxPoint x="25" y="405" />
            </Array>
          </mxGeometry>
        </mxCell>
        <mxCell id="EuI0nip87wkuVk568HCP-51" value="" style="shape=waypoint;sketch=0;fillStyle=solid;size=6;pointerEvents=1;points=[];fillColor=none;resizable=0;rotatable=0;perimeter=centerPerimeter;snapToPoint=1;" parent="1" vertex="1">
          <mxGeometry x="15" y="292.5" width="20" height="20" as="geometry" />
        </mxCell>
        <mxCell id="EuI0nip87wkuVk568HCP-52" style="edgeStyle=orthogonalEdgeStyle;rounded=0;orthogonalLoop=1;jettySize=auto;html=1;exitX=0.5;exitY=0;exitDx=0;exitDy=0;entryX=0.25;entryY=1;entryDx=0;entryDy=0;endArrow=open;endFill=0;" parent="1" edge="1">
          <mxGeometry relative="1" as="geometry">
            <Array as="points">
              <mxPoint x="-199" y="285" />
              <mxPoint x="-175" y="285" />
            </Array>
            <mxPoint x="-198.89999999999998" y="282.8799999999999" as="sourcePoint" />
            <mxPoint x="-151.10000000000002" y="284.60999999999984" as="targetPoint" />
          </mxGeometry>
        </mxCell>
        <mxCell id="EuI0nip87wkuVk568HCP-53" value="&lt;b&gt;+&lt;/b&gt;" style="ellipse;whiteSpace=wrap;html=1;aspect=fixed;fillColor=#ffcccc;strokeColor=#36393d;" parent="1" vertex="1">
          <mxGeometry x="-70" y="390" width="30" height="30" as="geometry" />
        </mxCell>
        <mxCell id="EuI0nip87wkuVk568HCP-54" style="edgeStyle=orthogonalEdgeStyle;rounded=0;orthogonalLoop=1;jettySize=auto;html=1;entryX=0.5;entryY=1;entryDx=0;entryDy=0;endArrow=open;endFill=0;" parent="1" source="EuI0nip87wkuVk568HCP-55" target="EuI0nip87wkuVk568HCP-53" edge="1">
          <mxGeometry relative="1" as="geometry" />
        </mxCell>
        <mxCell id="EuI0nip87wkuVk568HCP-55" value="&lt;b&gt;32&#39;d4&lt;/b&gt;" style="text;html=1;strokeColor=none;fillColor=none;align=center;verticalAlign=middle;whiteSpace=wrap;rounded=0;" parent="1" vertex="1">
          <mxGeometry x="-85" y="460" width="60" height="30" as="geometry" />
        </mxCell>
        <mxCell id="EuI0nip87wkuVk568HCP-56" style="edgeStyle=orthogonalEdgeStyle;rounded=0;orthogonalLoop=1;jettySize=auto;html=1;entryX=0.5;entryY=0;entryDx=0;entryDy=0;endArrow=open;endFill=0;" parent="1" source="EuI0nip87wkuVk568HCP-57" target="EuI0nip87wkuVk568HCP-46" edge="1">
          <mxGeometry relative="1" as="geometry" />
        </mxCell>
        <mxCell id="EuI0nip87wkuVk568HCP-57" value="&lt;b&gt;32&#39;d4&lt;/b&gt;" style="text;html=1;strokeColor=none;fillColor=none;align=center;verticalAlign=middle;whiteSpace=wrap;rounded=0;" parent="1" vertex="1">
          <mxGeometry x="936.4299999999998" y="70" width="60" height="30" as="geometry" />
        </mxCell>
        <mxCell id="EuI0nip87wkuVk568HCP-58" value="&lt;font style=&quot;font-size: 8px;&quot;&gt;addr&lt;/font&gt;" style="text;html=1;strokeColor=none;fillColor=none;align=center;verticalAlign=middle;whiteSpace=wrap;rounded=0;" parent="1" vertex="1">
          <mxGeometry x="45" y="298.12" width="30" height="10" as="geometry" />
        </mxCell>
        <mxCell id="EuI0nip87wkuVk568HCP-59" style="edgeStyle=orthogonalEdgeStyle;rounded=0;orthogonalLoop=1;jettySize=auto;html=1;entryX=1;entryY=0.5;entryDx=0;entryDy=0;strokeColor=#808080;endArrow=open;endFill=0;fontColor=#808080;" parent="1" target="EuI0nip87wkuVk568HCP-61" edge="1">
          <mxGeometry relative="1" as="geometry">
            <mxPoint x="630" y="390" as="sourcePoint" />
            <Array as="points">
              <mxPoint x="630" y="380" />
              <mxPoint x="630" y="380" />
            </Array>
          </mxGeometry>
        </mxCell>
        <mxCell id="EuI0nip87wkuVk568HCP-60" value="&lt;font&gt;sel_opr_b&lt;/font&gt;" style="edgeLabel;html=1;align=center;verticalAlign=middle;resizable=0;points=[];fontSize=11;fontFamily=Helvetica;fontColor=#808080;" parent="EuI0nip87wkuVk568HCP-59" connectable="0" vertex="1">
          <mxGeometry x="-0.8593" y="1" relative="1" as="geometry">
            <mxPoint x="1" y="2" as="offset" />
          </mxGeometry>
        </mxCell>
        <mxCell id="EuI0nip87wkuVk568HCP-61" value="" style="shape=trapezoid;perimeter=trapezoidPerimeter;whiteSpace=wrap;html=1;fixedSize=1;rotation=90;size=13.269999999999982;fillColor=#FFFF33;" parent="1" vertex="1">
          <mxGeometry x="595" y="333" width="70" height="22.2" as="geometry" />
        </mxCell>
        <mxCell id="EuI0nip87wkuVk568HCP-62" style="edgeStyle=orthogonalEdgeStyle;rounded=0;orthogonalLoop=1;jettySize=auto;html=1;exitX=0.5;exitY=0;exitDx=0;exitDy=0;exitPerimeter=0;entryX=0;entryY=0.79;entryDx=0;entryDy=0;entryPerimeter=0;endArrow=open;endFill=0;" parent="1" source="EuI0nip87wkuVk568HCP-61" target="EuI0nip87wkuVk568HCP-32" edge="1">
          <mxGeometry relative="1" as="geometry">
            <Array as="points">
              <mxPoint x="655" y="346" />
              <mxPoint x="655" y="327" />
            </Array>
          </mxGeometry>
        </mxCell>
        <mxCell id="EuI0nip87wkuVk568HCP-63" style="edgeStyle=orthogonalEdgeStyle;rounded=0;orthogonalLoop=1;jettySize=auto;html=1;entryX=0.75;entryY=1;entryDx=0;entryDy=0;exitX=1;exitY=0.5;exitDx=0;exitDy=0;endArrow=open;endFill=0;" parent="1" source="EuI0nip87wkuVk568HCP-66" target="EuI0nip87wkuVk568HCP-61" edge="1">
          <mxGeometry relative="1" as="geometry">
            <Array as="points">
              <mxPoint x="485" y="475" />
              <mxPoint x="600" y="475" />
              <mxPoint x="600" y="362" />
            </Array>
          </mxGeometry>
        </mxCell>
        <mxCell id="EuI0nip87wkuVk568HCP-64" style="edgeStyle=orthogonalEdgeStyle;rounded=0;orthogonalLoop=1;jettySize=auto;html=1;strokeColor=#808080;endArrow=open;endFill=0;fontColor=#808080;" parent="1" edge="1">
          <mxGeometry relative="1" as="geometry">
            <mxPoint x="459.71000000000004" y="520" as="sourcePoint" />
            <mxPoint x="459.7244927536233" y="500" as="targetPoint" />
          </mxGeometry>
        </mxCell>
        <mxCell id="EuI0nip87wkuVk568HCP-65" value="&lt;font&gt;imm_type&lt;/font&gt;" style="edgeLabel;html=1;align=center;verticalAlign=middle;resizable=0;points=[];fontSize=11;fontFamily=Helvetica;fontColor=#808080;" parent="EuI0nip87wkuVk568HCP-64" connectable="0" vertex="1">
          <mxGeometry x="-0.6403" y="1" relative="1" as="geometry">
            <mxPoint x="1" y="9" as="offset" />
          </mxGeometry>
        </mxCell>
        <mxCell id="EuI0nip87wkuVk568HCP-66" value="&lt;font style=&quot;font-size: 9px;&quot;&gt;&lt;b&gt;Immediate&lt;br&gt;Generator&lt;/b&gt;&lt;/font&gt;" style="rounded=0;whiteSpace=wrap;html=1;strokeColor=#CC0066;fillColor=#CC0066;" parent="1" vertex="1">
          <mxGeometry x="410" y="450" width="100" height="50" as="geometry" />
        </mxCell>
        <mxCell id="EuI0nip87wkuVk568HCP-67" style="edgeStyle=orthogonalEdgeStyle;rounded=0;orthogonalLoop=1;jettySize=auto;html=1;entryX=0;entryY=0.5;entryDx=0;entryDy=0;endArrow=open;endFill=0;exitX=1;exitY=0.5;exitDx=0;exitDy=0;" parent="1" source="xwV4w1sUFIsXvJg-IXbo-10" target="EuI0nip87wkuVk568HCP-66" edge="1">
          <mxGeometry relative="1" as="geometry">
            <Array as="points">
              <mxPoint x="205" y="297" />
              <mxPoint x="205" y="474" />
            </Array>
            <mxPoint x="205" y="300" as="sourcePoint" />
          </mxGeometry>
        </mxCell>
        <mxCell id="EuI0nip87wkuVk568HCP-69" style="edgeStyle=orthogonalEdgeStyle;rounded=0;orthogonalLoop=1;jettySize=auto;html=1;entryX=1;entryY=0.5;entryDx=0;entryDy=0;strokeColor=#808080;endArrow=open;endFill=0;fontColor=#808080;" parent="1" target="EuI0nip87wkuVk568HCP-71" edge="1">
          <mxGeometry relative="1" as="geometry">
            <mxPoint x="630" y="300" as="sourcePoint" />
          </mxGeometry>
        </mxCell>
        <mxCell id="EuI0nip87wkuVk568HCP-70" value="&lt;font&gt;sel_opr_a&lt;/font&gt;" style="edgeLabel;html=1;align=center;verticalAlign=middle;resizable=0;points=[];fontSize=11;fontFamily=Helvetica;fontColor=#808080;" parent="EuI0nip87wkuVk568HCP-69" connectable="0" vertex="1">
          <mxGeometry x="-0.9068" y="-1" relative="1" as="geometry">
            <mxPoint as="offset" />
          </mxGeometry>
        </mxCell>
        <mxCell id="EuI0nip87wkuVk568HCP-71" value="" style="shape=trapezoid;perimeter=trapezoidPerimeter;whiteSpace=wrap;html=1;fixedSize=1;rotation=90;size=13.269999999999982;fillColor=#FFFF33;" parent="1" vertex="1">
          <mxGeometry x="595" y="233.89999999999998" width="70" height="22.2" as="geometry" />
        </mxCell>
        <mxCell id="EuI0nip87wkuVk568HCP-72" value="" style="edgeStyle=orthogonalEdgeStyle;rounded=0;orthogonalLoop=1;jettySize=auto;html=1;endArrow=none;endFill=0;" parent="1" source="EuI0nip87wkuVk568HCP-97" target="EuI0nip87wkuVk568HCP-51" edge="1">
          <mxGeometry relative="1" as="geometry">
            <mxPoint x="565" y="170" as="sourcePoint" />
            <mxPoint x="-145" y="285" as="targetPoint" />
            <Array as="points">
              <mxPoint x="25" y="150" />
            </Array>
          </mxGeometry>
        </mxCell>
        <mxCell id="EuI0nip87wkuVk568HCP-73" style="edgeStyle=orthogonalEdgeStyle;rounded=0;orthogonalLoop=1;jettySize=auto;html=1;entryX=0.25;entryY=1;entryDx=0;entryDy=0;endArrow=open;endFill=0;" parent="1" source="EuI0nip87wkuVk568HCP-97" target="EuI0nip87wkuVk568HCP-71" edge="1">
          <mxGeometry relative="1" as="geometry">
            <mxPoint x="585" y="170" as="sourcePoint" />
            <Array as="points">
              <mxPoint x="585" y="228" />
            </Array>
          </mxGeometry>
        </mxCell>
        <mxCell id="EuI0nip87wkuVk568HCP-74" style="edgeStyle=orthogonalEdgeStyle;rounded=0;orthogonalLoop=1;jettySize=auto;html=1;entryX=0;entryY=0.21;entryDx=0;entryDy=0;entryPerimeter=0;exitX=0.5;exitY=0;exitDx=0;exitDy=0;endArrow=open;endFill=0;" parent="1" source="EuI0nip87wkuVk568HCP-71" target="EuI0nip87wkuVk568HCP-32" edge="1">
          <mxGeometry relative="1" as="geometry">
            <mxPoint x="635" y="260" as="sourcePoint" />
            <Array as="points">
              <mxPoint x="655" y="245" />
              <mxPoint x="655" y="263" />
            </Array>
          </mxGeometry>
        </mxCell>
        <mxCell id="EuI0nip87wkuVk568HCP-76" value="&lt;font style=&quot;font-size: 8px;&quot;&gt;&lt;b&gt;Branch&lt;br&gt;Comparator&lt;/b&gt;&lt;/font&gt;" style="whiteSpace=wrap;html=1;fontFamily=Helvetica;fontSize=11;fontColor=default;strokeColor=#00FFFF;fillColor=#6BFF2B;" parent="1" vertex="1">
          <mxGeometry x="670" y="490" width="80.71" height="60" as="geometry" />
        </mxCell>
        <mxCell id="EuI0nip87wkuVk568HCP-77" style="edgeStyle=orthogonalEdgeStyle;shape=connector;rounded=0;orthogonalLoop=1;jettySize=auto;html=1;entryX=-0.086;entryY=0.869;entryDx=0;entryDy=0;labelBackgroundColor=default;strokeColor=#87FF2B;align=center;verticalAlign=middle;fontFamily=Helvetica;fontSize=11;fontColor=default;endArrow=open;endFill=0;entryPerimeter=0;" parent="1" target="EuI0nip87wkuVk568HCP-83" edge="1">
          <mxGeometry relative="1" as="geometry">
            <mxPoint x="555" y="262.05" as="sourcePoint" />
            <mxPoint x="634.29" y="506.95" as="targetPoint" />
            <Array as="points">
              <mxPoint x="570" y="262" />
              <mxPoint x="570" y="506" />
            </Array>
          </mxGeometry>
        </mxCell>
        <mxCell id="EuI0nip87wkuVk568HCP-78" style="edgeStyle=orthogonalEdgeStyle;shape=connector;rounded=0;orthogonalLoop=1;jettySize=auto;html=1;labelBackgroundColor=default;strokeColor=#71FF1F;align=center;verticalAlign=middle;fontFamily=Helvetica;fontSize=11;fontColor=default;endArrow=open;entryX=0;entryY=0.75;entryDx=0;entryDy=0;endFill=0;" parent="1" target="EuI0nip87wkuVk568HCP-84" edge="1">
          <mxGeometry relative="1" as="geometry">
            <mxPoint x="656.25" y="535" as="targetPoint" />
            <mxPoint x="556.96" y="326.87" as="sourcePoint" />
            <Array as="points">
              <mxPoint x="560" y="327" />
              <mxPoint x="560" y="535" />
            </Array>
          </mxGeometry>
        </mxCell>
        <mxCell id="EuI0nip87wkuVk568HCP-79" value="" style="edgeStyle=orthogonalEdgeStyle;rounded=0;orthogonalLoop=1;jettySize=auto;html=1;exitX=0;exitY=0.5;exitDx=0;exitDy=0;entryX=0.75;entryY=1;entryDx=0;entryDy=0;endArrow=open;endFill=0;" parent="1" source="EuI0nip87wkuVk568HCP-53" target="EuI0nip87wkuVk568HCP-80" edge="1">
          <mxGeometry relative="1" as="geometry">
            <mxPoint x="-70" y="405" as="sourcePoint" />
            <mxPoint x="-85" y="302" as="targetPoint" />
            <Array as="points">
              <mxPoint x="-285" y="405" />
              <mxPoint x="-285" y="303" />
              <mxPoint x="-221" y="303" />
            </Array>
          </mxGeometry>
        </mxCell>
        <mxCell id="EuI0nip87wkuVk568HCP-80" value="" style="shape=trapezoid;perimeter=trapezoidPerimeter;whiteSpace=wrap;html=1;fixedSize=1;rotation=90;size=13.269999999999982;fillColor=#FFFF33;" parent="1" vertex="1">
          <mxGeometry x="-245" y="274.66999999999985" width="70" height="22.2" as="geometry" />
        </mxCell>
        <mxCell id="UIZ2LBOJyxjY5PGTl3IZ-1" style="edgeStyle=orthogonalEdgeStyle;rounded=0;orthogonalLoop=1;jettySize=auto;html=1;exitX=1;exitY=0.5;exitDx=0;exitDy=0;strokeColor=#1eff00;" parent="1" edge="1">
          <mxGeometry relative="1" as="geometry">
            <mxPoint x="780" y="537" as="targetPoint" />
            <mxPoint x="743.5" y="537" as="sourcePoint" />
          </mxGeometry>
        </mxCell>
        <mxCell id="EuI0nip87wkuVk568HCP-82" value="&lt;span style=&quot;font-size: 6px;&quot;&gt;br_taken&lt;/span&gt;" style="text;html=1;strokeColor=none;fillColor=none;align=center;verticalAlign=middle;whiteSpace=wrap;rounded=0;" parent="1" vertex="1">
          <mxGeometry x="724.71" y="530.5" width="25" height="10" as="geometry" />
        </mxCell>
        <mxCell id="EuI0nip87wkuVk568HCP-83" value="&lt;font style=&quot;font-size: 6px;&quot;&gt;opr_a&lt;/font&gt;" style="text;html=1;strokeColor=none;fillColor=none;align=center;verticalAlign=middle;whiteSpace=wrap;rounded=0;" parent="1" vertex="1">
          <mxGeometry x="670" y="499" width="20" height="8" as="geometry" />
        </mxCell>
        <mxCell id="EuI0nip87wkuVk568HCP-84" value="&lt;font style=&quot;font-size: 6px;&quot;&gt;opr_b&lt;/font&gt;" style="text;html=1;strokeColor=none;fillColor=none;align=center;verticalAlign=middle;whiteSpace=wrap;rounded=0;" parent="1" vertex="1">
          <mxGeometry x="670" y="529" width="20" height="8" as="geometry" />
        </mxCell>
        <mxCell id="EuI0nip87wkuVk568HCP-85" value="&lt;font style=&quot;font-size: 6px;&quot;&gt;pc_in&lt;/font&gt;" style="text;html=1;strokeColor=none;fillColor=none;align=center;verticalAlign=middle;whiteSpace=wrap;rounded=0;" parent="1" vertex="1">
          <mxGeometry x="-85" y="293" width="20" height="15" as="geometry" />
        </mxCell>
        <mxCell id="EuI0nip87wkuVk568HCP-86" value="&lt;font style=&quot;font-size: 6px;&quot;&gt;pc_out&lt;/font&gt;" style="text;html=1;strokeColor=none;fillColor=none;align=center;verticalAlign=middle;whiteSpace=wrap;rounded=0;" parent="1" vertex="1">
          <mxGeometry x="-37" y="296" width="22" height="10" as="geometry" />
        </mxCell>
        <mxCell id="EuI0nip87wkuVk568HCP-87" style="edgeStyle=orthogonalEdgeStyle;shape=connector;rounded=0;orthogonalLoop=1;jettySize=auto;html=1;entryX=0;entryY=0.75;entryDx=0;entryDy=0;labelBackgroundColor=default;strokeColor=#000000;align=center;verticalAlign=middle;fontFamily=Helvetica;fontSize=11;fontColor=default;endArrow=open;endFill=0;" parent="1" target="EuI0nip87wkuVk568HCP-37" edge="1">
          <mxGeometry relative="1" as="geometry">
            <Array as="points">
              <mxPoint x="580" y="327" />
              <mxPoint x="580" y="430" />
              <mxPoint x="810" y="430" />
              <mxPoint x="810" y="340" />
            </Array>
            <mxPoint x="580" y="330" as="sourcePoint" />
          </mxGeometry>
        </mxCell>
        <mxCell id="EuI0nip87wkuVk568HCP-88" value="&lt;font style=&quot;font-size: 8px;&quot;&gt;rdata2&lt;/font&gt;" style="text;html=1;strokeColor=none;fillColor=none;align=center;verticalAlign=middle;whiteSpace=wrap;rounded=0;" parent="1" vertex="1">
          <mxGeometry x="475" y="320" width="30" height="10" as="geometry" />
        </mxCell>
        <mxCell id="EuI0nip87wkuVk568HCP-89" value="&lt;font style=&quot;font-size: 8px;&quot;&gt;rdata1&lt;/font&gt;" style="text;html=1;strokeColor=none;fillColor=none;align=center;verticalAlign=middle;whiteSpace=wrap;rounded=0;" parent="1" vertex="1">
          <mxGeometry x="475" y="256.1" width="30" height="10" as="geometry" />
        </mxCell>
        <mxCell id="EuI0nip87wkuVk568HCP-91" value="" style="edgeStyle=orthogonalEdgeStyle;rounded=0;orthogonalLoop=1;jettySize=auto;html=1;exitX=1;exitY=0.63;exitDx=0;exitDy=0;exitPerimeter=0;endArrow=none;endFill=0;entryX=0.5;entryY=1;entryDx=0;entryDy=0;" parent="1" source="EuI0nip87wkuVk568HCP-3" target="b3uctcBHCQjBajmpuFDN-5" edge="1">
          <mxGeometry relative="1" as="geometry">
            <mxPoint x="505" y="327" as="sourcePoint" />
            <mxPoint x="510" y="310" as="targetPoint" />
            <Array as="points" />
          </mxGeometry>
        </mxCell>
        <mxCell id="EuI0nip87wkuVk568HCP-92" style="edgeStyle=orthogonalEdgeStyle;shape=connector;rounded=0;orthogonalLoop=1;jettySize=auto;html=1;entryX=0.25;entryY=1;entryDx=0;entryDy=0;labelBackgroundColor=default;strokeColor=#000000;align=center;verticalAlign=middle;fontFamily=Helvetica;fontSize=11;fontColor=default;endArrow=open;endFill=0;" parent="1" source="b3uctcBHCQjBajmpuFDN-5" target="EuI0nip87wkuVk568HCP-61" edge="1">
          <mxGeometry relative="1" as="geometry">
            <mxPoint x="525" y="326.87" as="sourcePoint" />
          </mxGeometry>
        </mxCell>
        <mxCell id="EuI0nip87wkuVk568HCP-94" value="" style="edgeStyle=orthogonalEdgeStyle;rounded=0;orthogonalLoop=1;jettySize=auto;html=1;exitX=0.5;exitY=0;exitDx=0;exitDy=0;endArrow=none;endFill=0;" parent="1" source="b3uctcBHCQjBajmpuFDN-1" edge="1">
          <mxGeometry relative="1" as="geometry">
            <mxPoint x="505" y="263" as="sourcePoint" />
            <mxPoint x="545" y="262.1" as="targetPoint" />
          </mxGeometry>
        </mxCell>
        <mxCell id="EuI0nip87wkuVk568HCP-96" value="" style="edgeStyle=orthogonalEdgeStyle;rounded=0;orthogonalLoop=1;jettySize=auto;html=1;entryDx=0;entryDy=0;endArrow=open;endFill=0;" parent="1" target="EuI0nip87wkuVk568HCP-97" edge="1">
          <mxGeometry relative="1" as="geometry">
            <mxPoint x="585" y="150" as="sourcePoint" />
            <mxPoint x="619" y="207" as="targetPoint" />
            <Array as="points" />
          </mxGeometry>
        </mxCell>
        <mxCell id="EuI0nip87wkuVk568HCP-97" value="" style="shape=waypoint;sketch=0;fillStyle=solid;size=6;pointerEvents=1;points=[];fillColor=none;resizable=0;rotatable=0;perimeter=centerPerimeter;snapToPoint=1;" parent="1" vertex="1">
          <mxGeometry x="575" y="140" width="20" height="20" as="geometry" />
        </mxCell>
        <mxCell id="EuI0nip87wkuVk568HCP-98" style="edgeStyle=orthogonalEdgeStyle;shape=connector;rounded=0;orthogonalLoop=1;jettySize=auto;html=1;labelBackgroundColor=default;strokeColor=#808080;align=center;verticalAlign=middle;fontFamily=Helvetica;fontSize=11;fontColor=default;endArrow=open;entryX=1;entryY=0.5;entryDx=0;entryDy=0;endFill=0;" parent="1" target="EuI0nip87wkuVk568HCP-126" edge="1">
          <mxGeometry relative="1" as="geometry">
            <mxPoint x="1079.5" y="331.54499999999996" as="targetPoint" />
            <mxPoint x="1080.5" y="360.68999999999994" as="sourcePoint" />
            <Array as="points">
              <mxPoint x="1080" y="331" />
              <mxPoint x="1080" y="331" />
            </Array>
          </mxGeometry>
        </mxCell>
        <mxCell id="EuI0nip87wkuVk568HCP-99" value="&lt;font&gt;wb_sel&lt;/font&gt;" style="edgeLabel;html=1;align=center;verticalAlign=middle;resizable=0;points=[];fontSize=11;fontFamily=Helvetica;fontColor=#808080;" parent="EuI0nip87wkuVk568HCP-98" connectable="0" vertex="1">
          <mxGeometry x="-0.3771" relative="1" as="geometry">
            <mxPoint y="8" as="offset" />
          </mxGeometry>
        </mxCell>
        <mxCell id="EuI0nip87wkuVk568HCP-100" style="edgeStyle=orthogonalEdgeStyle;rounded=0;orthogonalLoop=1;jettySize=auto;html=1;entryX=1;entryY=0.5;entryDx=0;entryDy=0;strokeColor=#00CC00;endArrow=open;endFill=0;" parent="1" target="EuI0nip87wkuVk568HCP-80" edge="1">
          <mxGeometry relative="1" as="geometry">
            <mxPoint x="-210.22000000000003" y="335.18000000000006" as="targetPoint" />
            <mxPoint x="-210" y="358.61" as="sourcePoint" />
          </mxGeometry>
        </mxCell>
        <mxCell id="EuI0nip87wkuVk568HCP-101" value="&lt;font&gt;br_taken&lt;/font&gt;" style="edgeLabel;html=1;align=center;verticalAlign=middle;resizable=0;points=[];fontSize=11;fontFamily=Helvetica;fontColor=#00CC00;" parent="EuI0nip87wkuVk568HCP-100" connectable="0" vertex="1">
          <mxGeometry x="-0.3265" y="-1" relative="1" as="geometry">
            <mxPoint x="-1" y="8" as="offset" />
          </mxGeometry>
        </mxCell>
        <mxCell id="EuI0nip87wkuVk568HCP-102" value="" style="edgeStyle=orthogonalEdgeStyle;rounded=0;orthogonalLoop=1;jettySize=auto;html=1;entryDx=0;entryDy=0;entryPerimeter=0;endArrow=none;endFill=0;" parent="1" source="EuI0nip87wkuVk568HCP-42" target="EuI0nip87wkuVk568HCP-104" edge="1">
          <mxGeometry relative="1" as="geometry">
            <mxPoint x="1067.4299999999998" y="302" as="targetPoint" />
            <mxPoint x="835" y="290" as="sourcePoint" />
            <Array as="points" />
          </mxGeometry>
        </mxCell>
        <mxCell id="EuI0nip87wkuVk568HCP-103" style="edgeStyle=orthogonalEdgeStyle;shape=connector;rounded=0;orthogonalLoop=1;jettySize=auto;html=1;labelBackgroundColor=default;strokeColor=#000000;align=center;verticalAlign=middle;fontFamily=Helvetica;fontSize=11;fontColor=default;endArrow=open;endFill=0;" parent="1" source="EuI0nip87wkuVk568HCP-104" edge="1">
          <mxGeometry relative="1" as="geometry">
            <Array as="points">
              <mxPoint x="-285" y="200" />
              <mxPoint x="-285" y="270" />
              <mxPoint x="-221" y="270" />
            </Array>
            <mxPoint x="-220" y="270" as="targetPoint" />
          </mxGeometry>
        </mxCell>
        <mxCell id="EuI0nip87wkuVk568HCP-104" value="" style="shape=waypoint;sketch=0;fillStyle=solid;size=6;pointerEvents=1;points=[];fillColor=none;resizable=0;rotatable=0;perimeter=centerPerimeter;snapToPoint=1;fontFamily=Helvetica;fontSize=11;fontColor=default;" parent="1" vertex="1">
          <mxGeometry x="824.4299999999998" y="190" width="20" height="20" as="geometry" />
        </mxCell>
        <mxCell id="EuI0nip87wkuVk568HCP-105" value="&lt;font style=&quot;font-size: 8px;&quot;&gt;opr_a&lt;/font&gt;" style="text;html=1;strokeColor=none;fillColor=none;align=center;verticalAlign=middle;whiteSpace=wrap;rounded=0;" parent="1" vertex="1">
          <mxGeometry x="675" y="257.1" width="30" height="10" as="geometry" />
        </mxCell>
        <mxCell id="EuI0nip87wkuVk568HCP-106" value="&lt;font style=&quot;font-size: 8px;&quot;&gt;opr_b&lt;/font&gt;" style="text;html=1;strokeColor=none;fillColor=none;align=center;verticalAlign=middle;whiteSpace=wrap;rounded=0;" parent="1" vertex="1">
          <mxGeometry x="675" y="320" width="30" height="10" as="geometry" />
        </mxCell>
        <mxCell id="EuI0nip87wkuVk568HCP-107" value="&lt;font style=&quot;font-size: 8px;&quot;&gt;opr_res&lt;/font&gt;" style="text;html=1;strokeColor=none;fillColor=none;align=center;verticalAlign=middle;whiteSpace=wrap;rounded=0;" parent="1" vertex="1">
          <mxGeometry x="720.71" y="288.12" width="30" height="10" as="geometry" />
        </mxCell>
        <mxCell id="EuI0nip87wkuVk568HCP-108" value="&lt;font style=&quot;font-size: 8px;&quot;&gt;addr&lt;/font&gt;" style="text;html=1;strokeColor=none;fillColor=none;align=center;verticalAlign=middle;whiteSpace=wrap;rounded=0;" parent="1" vertex="1">
          <mxGeometry x="906.4299999999998" y="287.49" width="30" height="10" as="geometry" />
        </mxCell>
        <mxCell id="EuI0nip87wkuVk568HCP-109" value="&lt;font style=&quot;font-size: 8px;&quot;&gt;wdata&lt;/font&gt;" style="text;html=1;strokeColor=none;fillColor=none;align=center;verticalAlign=middle;whiteSpace=wrap;rounded=0;" parent="1" vertex="1">
          <mxGeometry x="906.4299999999998" y="332.99999999999994" width="30" height="10" as="geometry" />
        </mxCell>
        <mxCell id="EuI0nip87wkuVk568HCP-110" value="&lt;font style=&quot;font-size: 8px;&quot;&gt;rdata&lt;/font&gt;" style="text;html=1;strokeColor=none;fillColor=none;align=center;verticalAlign=middle;whiteSpace=wrap;rounded=0;" parent="1" vertex="1">
          <mxGeometry x="966.4299999999998" y="297.4899999999999" width="30" height="10" as="geometry" />
        </mxCell>
        <mxCell id="EuI0nip87wkuVk568HCP-111" value="&lt;b style=&quot;font-size: 9px;&quot;&gt;&lt;font style=&quot;font-size: 9px;&quot; color=&quot;#0000ff&quot;&gt;CSR Register &lt;br&gt;File&lt;/font&gt;&lt;/b&gt;" style="rounded=0;whiteSpace=wrap;html=1;points=[[0,0,0,0,0],[0,0.25,0,0,0],[0,0.5,0,0,0],[0,0.75,0,0,0],[0,1,0,0,0],[0.25,0,0,0,0],[0.25,1,0,0,0],[0.5,0,0,0,0],[0.5,1,0,0,0],[0.75,0,0,0,0],[0.75,1,0,0,0],[1,0,0,0,0],[1,0.25,0,0,0],[1,0.5,0,0,0],[1,0.63,0,0,0],[1,0.75,0,0,0],[1,1,0,0,0]];fontColor=#007FFF;strokeColor=#3333FF;fillColor=#3399FF;" parent="1" vertex="1">
          <mxGeometry x="865" y="484" width="100" height="170" as="geometry" />
        </mxCell>
        <mxCell id="EuI0nip87wkuVk568HCP-112" value="&lt;font style=&quot;font-size: 8px;&quot;&gt;pc&lt;/font&gt;" style="text;html=1;strokeColor=none;fillColor=none;align=center;verticalAlign=middle;whiteSpace=wrap;rounded=0;fontColor=#0000ff;" parent="1" vertex="1">
          <mxGeometry x="865" y="584" width="20" height="15" as="geometry" />
        </mxCell>
        <mxCell id="EuI0nip87wkuVk568HCP-113" value="&lt;font style=&quot;font-size: 8px;&quot;&gt;addr&lt;/font&gt;" style="text;html=1;strokeColor=none;fillColor=none;align=center;verticalAlign=middle;whiteSpace=wrap;rounded=0;fontColor=#0000ff;" parent="1" vertex="1">
          <mxGeometry x="865" y="507" width="27.5" height="15" as="geometry" />
        </mxCell>
        <mxCell id="EuI0nip87wkuVk568HCP-115" value="&lt;span style=&quot;font-size: 8px;&quot;&gt;interrupt/exception&lt;br&gt;&lt;/span&gt;" style="text;html=1;strokeColor=none;fillColor=none;align=center;verticalAlign=middle;whiteSpace=wrap;rounded=0;fontColor=#0000ff;" parent="1" vertex="1">
          <mxGeometry x="865" y="599" width="77.5" height="15" as="geometry" />
        </mxCell>
        <mxCell id="EuI0nip87wkuVk568HCP-116" value="&lt;font style=&quot;font-size: 8px;&quot;&gt;data&lt;/font&gt;" style="text;html=1;strokeColor=none;fillColor=none;align=center;verticalAlign=middle;whiteSpace=wrap;rounded=0;fontColor=#0000ff;" parent="1" vertex="1">
          <mxGeometry x="865" y="525.5" width="27.5" height="15" as="geometry" />
        </mxCell>
        <mxCell id="EuI0nip87wkuVk568HCP-117" style="edgeStyle=orthogonalEdgeStyle;shape=connector;rounded=0;orthogonalLoop=1;jettySize=auto;html=1;labelBackgroundColor=default;strokeColor=#0000ff;align=center;verticalAlign=middle;fontFamily=Helvetica;fontSize=11;fontColor=default;endArrow=open;exitX=0.568;exitY=0.998;exitDx=0;exitDy=0;exitPerimeter=0;endFill=0;" parent="1" source="EuI0nip87wkuVk568HCP-125" target="EuI0nip87wkuVk568HCP-118" edge="1">
          <mxGeometry relative="1" as="geometry">
            <mxPoint x="135" y="570" as="sourcePoint" />
            <Array as="points">
              <mxPoint x="205" y="770" />
              <mxPoint x="830" y="770" />
              <mxPoint x="830" y="621" />
            </Array>
          </mxGeometry>
        </mxCell>
        <mxCell id="EuI0nip87wkuVk568HCP-118" value="&lt;font style=&quot;font-size: 8px;&quot;&gt;inst&lt;/font&gt;" style="text;html=1;strokeColor=none;fillColor=none;align=center;verticalAlign=middle;whiteSpace=wrap;rounded=0;fontColor=#0000ff;" parent="1" vertex="1">
          <mxGeometry x="865" y="614" width="22.5" height="15" as="geometry" />
        </mxCell>
        <mxCell id="EuI0nip87wkuVk568HCP-119" value="&lt;font style=&quot;font-size: 8px;&quot;&gt;rdata&lt;/font&gt;" style="text;html=1;strokeColor=none;fillColor=none;align=center;verticalAlign=middle;whiteSpace=wrap;rounded=0;fontColor=#0000ff;" parent="1" vertex="1">
          <mxGeometry x="937.5" y="535" width="27.5" height="15" as="geometry" />
        </mxCell>
        <mxCell id="EuI0nip87wkuVk568HCP-120" style="edgeStyle=orthogonalEdgeStyle;shape=connector;rounded=0;orthogonalLoop=1;jettySize=auto;html=1;labelBackgroundColor=default;strokeColor=#0000ff;align=center;verticalAlign=middle;fontFamily=Helvetica;fontSize=11;fontColor=default;endArrow=open;entryX=0.75;entryY=1;entryDx=0;entryDy=0;endFill=0;" parent="1" source="EuI0nip87wkuVk568HCP-121" target="EuI0nip87wkuVk568HCP-144" edge="1">
          <mxGeometry relative="1" as="geometry">
            <mxPoint x="-165" y="470" as="targetPoint" />
            <Array as="points">
              <mxPoint x="995" y="580" />
              <mxPoint x="995" y="800" />
              <mxPoint x="-175" y="800" />
              <mxPoint x="-175" y="322" />
              <mxPoint x="-151" y="322" />
            </Array>
          </mxGeometry>
        </mxCell>
        <mxCell id="EuI0nip87wkuVk568HCP-121" value="&lt;font style=&quot;font-size: 8px;&quot;&gt;epc&lt;/font&gt;" style="text;html=1;strokeColor=none;fillColor=none;align=center;verticalAlign=middle;whiteSpace=wrap;rounded=0;fontColor=#0000ff;" parent="1" vertex="1">
          <mxGeometry x="937.5" y="572.5" width="27.5" height="15" as="geometry" />
        </mxCell>
        <mxCell id="EuI0nip87wkuVk568HCP-122" style="edgeStyle=orthogonalEdgeStyle;shape=connector;rounded=0;orthogonalLoop=1;jettySize=auto;html=1;labelBackgroundColor=default;strokeColor=#0000ff;align=center;verticalAlign=middle;fontFamily=Helvetica;fontSize=11;fontColor=default;endArrow=open;entryX=0;entryY=0.5;entryDx=0;entryDy=0;endFill=0;" parent="1" source="EuI0nip87wkuVk568HCP-124" target="EuI0nip87wkuVk568HCP-112" edge="1">
          <mxGeometry relative="1" as="geometry">
            <mxPoint x="835" y="530" as="targetPoint" />
            <Array as="points">
              <mxPoint x="820" y="150" />
              <mxPoint x="820" y="591" />
            </Array>
          </mxGeometry>
        </mxCell>
        <mxCell id="EuI0nip87wkuVk568HCP-123" value="" style="edgeStyle=orthogonalEdgeStyle;rounded=0;orthogonalLoop=1;jettySize=auto;html=1;entryDx=0;entryDy=0;endArrow=none;endFill=0;" parent="1" source="EuI0nip87wkuVk568HCP-97" target="EuI0nip87wkuVk568HCP-124" edge="1">
          <mxGeometry relative="1" as="geometry">
            <mxPoint x="585" y="150" as="sourcePoint" />
            <mxPoint x="900" y="150" as="targetPoint" />
            <Array as="points" />
          </mxGeometry>
        </mxCell>
        <mxCell id="EuI0nip87wkuVk568HCP-124" value="" style="shape=waypoint;sketch=0;fillStyle=solid;size=6;pointerEvents=1;points=[];fillColor=none;resizable=0;rotatable=0;perimeter=centerPerimeter;snapToPoint=1;fontFamily=Helvetica;fontSize=11;fontColor=default;strokeColor=#0000FF;" parent="1" vertex="1">
          <mxGeometry x="810" y="140" width="20" height="20" as="geometry" />
        </mxCell>
        <mxCell id="EuI0nip87wkuVk568HCP-125" value="" style="shape=waypoint;sketch=0;fillStyle=solid;size=6;pointerEvents=1;points=[];fillColor=none;resizable=0;rotatable=0;perimeter=centerPerimeter;snapToPoint=1;fontFamily=Helvetica;fontSize=11;fontColor=default;" parent="1" vertex="1">
          <mxGeometry x="195" y="464" width="20" height="20" as="geometry" />
        </mxCell>
        <mxCell id="EuI0nip87wkuVk568HCP-126" value="" style="shape=trapezoid;perimeter=trapezoidPerimeter;whiteSpace=wrap;html=1;fixedSize=1;rotation=90;size=13.269999999999982;points=[[0,0,0,0,0],[0,0.25,0,0,0],[0,0.5,0,0,0],[0,0.75,0,0,0],[0,1,0,0,0],[0.2,1,0,0,0],[0.25,0,0,0,0],[0.4,1,0,0,0],[0.5,0,0,0,0],[0.6,1,0,0,0],[0.75,0,0,0,0],[0.8,0.64,0,0,8],[1,0,0,0,0],[1,0.25,0,0,0],[1,0.5,0,0,0],[1,0.75,0,0,0],[1,1,0,0,0]];fillColor=#FFFF33;" parent="1" vertex="1">
          <mxGeometry x="1045" y="284.99999999999994" width="70" height="22.2" as="geometry" />
        </mxCell>
        <mxCell id="EuI0nip87wkuVk568HCP-127" style="edgeStyle=orthogonalEdgeStyle;shape=connector;rounded=0;orthogonalLoop=1;jettySize=auto;html=1;entryX=0.8;entryY=0.64;entryDx=0;entryDy=8;entryPerimeter=0;labelBackgroundColor=default;strokeColor=#0000ff;align=center;verticalAlign=middle;fontFamily=Helvetica;fontSize=11;fontColor=default;endArrow=open;endFill=0;" parent="1" source="EuI0nip87wkuVk568HCP-119" target="EuI0nip87wkuVk568HCP-126" edge="1">
          <mxGeometry relative="1" as="geometry">
            <Array as="points">
              <mxPoint x="1017" y="542" />
              <mxPoint x="1017" y="317" />
            </Array>
          </mxGeometry>
        </mxCell>
        <mxCell id="EuI0nip87wkuVk568HCP-130" value="" style="endArrow=open;html=1;rounded=0;labelBackgroundColor=default;strokeColor=#808080;align=center;verticalAlign=middle;fontFamily=Helvetica;fontSize=11;fontColor=default;shape=connector;entryX=0;entryY=0.5;entryDx=0;entryDy=0;endFill=0;" parent="1" target="EuI0nip87wkuVk568HCP-131" edge="1">
          <mxGeometry width="50" height="50" relative="1" as="geometry">
            <mxPoint x="355" y="587.17" as="sourcePoint" />
            <mxPoint x="435" y="587.5" as="targetPoint" />
          </mxGeometry>
        </mxCell>
        <mxCell id="EuI0nip87wkuVk568HCP-131" value="&lt;font&gt;sel_opr_a&lt;/font&gt;" style="text;html=1;strokeColor=none;fillColor=none;align=center;verticalAlign=middle;whiteSpace=wrap;rounded=0;fontSize=11;fontFamily=Helvetica;fontColor=#808080;" parent="1" vertex="1">
          <mxGeometry x="385" y="572.5" width="60" height="30" as="geometry" />
        </mxCell>
        <mxCell id="EuI0nip87wkuVk568HCP-132" value="" style="endArrow=open;html=1;rounded=0;labelBackgroundColor=default;strokeColor=#808080;align=center;verticalAlign=middle;fontFamily=Helvetica;fontSize=11;fontColor=default;shape=connector;entryX=0;entryY=0.5;entryDx=0;entryDy=0;endFill=0;" parent="1" target="EuI0nip87wkuVk568HCP-133" edge="1">
          <mxGeometry width="50" height="50" relative="1" as="geometry">
            <mxPoint x="355" y="602.17" as="sourcePoint" />
            <mxPoint x="435" y="602.5" as="targetPoint" />
          </mxGeometry>
        </mxCell>
        <mxCell id="EuI0nip87wkuVk568HCP-133" value="&lt;font&gt;sel_opr_b&lt;/font&gt;" style="text;html=1;strokeColor=none;fillColor=none;align=center;verticalAlign=middle;whiteSpace=wrap;rounded=0;fontSize=11;fontFamily=Helvetica;fontColor=#808080;" parent="1" vertex="1">
          <mxGeometry x="385" y="587.5" width="60" height="30" as="geometry" />
        </mxCell>
        <mxCell id="EuI0nip87wkuVk568HCP-134" value="" style="endArrow=open;html=1;rounded=0;labelBackgroundColor=default;strokeColor=#808080;align=center;verticalAlign=middle;fontFamily=Helvetica;fontSize=11;fontColor=default;shape=connector;entryX=0;entryY=0.5;entryDx=0;entryDy=0;endFill=0;" parent="1" target="EuI0nip87wkuVk568HCP-135" edge="1">
          <mxGeometry width="50" height="50" relative="1" as="geometry">
            <mxPoint x="355" y="617.17" as="sourcePoint" />
            <mxPoint x="435" y="617.5" as="targetPoint" />
          </mxGeometry>
        </mxCell>
        <mxCell id="EuI0nip87wkuVk568HCP-135" value="&lt;font&gt;sel_wb_id_ex&lt;/font&gt;" style="text;html=1;strokeColor=none;fillColor=none;align=center;verticalAlign=middle;whiteSpace=wrap;rounded=0;fontSize=11;fontFamily=Helvetica;fontColor=#808080;" parent="1" vertex="1">
          <mxGeometry x="385" y="602.5" width="75" height="30" as="geometry" />
        </mxCell>
        <mxCell id="EuI0nip87wkuVk568HCP-136" value="" style="endArrow=open;html=1;rounded=0;labelBackgroundColor=default;strokeColor=#808080;align=center;verticalAlign=middle;fontFamily=Helvetica;fontSize=11;fontColor=default;shape=connector;entryX=0;entryY=0.5;entryDx=0;entryDy=0;endFill=0;" parent="1" target="EuI0nip87wkuVk568HCP-137" edge="1">
          <mxGeometry width="50" height="50" relative="1" as="geometry">
            <mxPoint x="355" y="632.17" as="sourcePoint" />
            <mxPoint x="435" y="632.5" as="targetPoint" />
          </mxGeometry>
        </mxCell>
        <mxCell id="EuI0nip87wkuVk568HCP-137" value="&lt;font&gt;rf_en_id_ex&lt;/font&gt;" style="text;html=1;strokeColor=none;fillColor=none;align=center;verticalAlign=middle;whiteSpace=wrap;rounded=0;fontSize=11;fontFamily=Helvetica;fontColor=#808080;" parent="1" vertex="1">
          <mxGeometry x="385" y="617.5" width="75" height="30" as="geometry" />
        </mxCell>
        <mxCell id="EuI0nip87wkuVk568HCP-138" value="" style="endArrow=open;html=1;rounded=0;labelBackgroundColor=default;strokeColor=#808080;align=center;verticalAlign=middle;fontFamily=Helvetica;fontSize=11;fontColor=default;shape=connector;entryX=0;entryY=0.5;entryDx=0;entryDy=0;endFill=0;" parent="1" target="EuI0nip87wkuVk568HCP-139" edge="1">
          <mxGeometry width="50" height="50" relative="1" as="geometry">
            <mxPoint x="355" y="647.17" as="sourcePoint" />
            <mxPoint x="435" y="647.5" as="targetPoint" />
          </mxGeometry>
        </mxCell>
        <mxCell id="EuI0nip87wkuVk568HCP-139" value="&lt;font&gt;alu_op&lt;/font&gt;" style="text;html=1;strokeColor=none;fillColor=none;align=center;verticalAlign=middle;whiteSpace=wrap;rounded=0;fontSize=11;fontFamily=Helvetica;fontColor=#808080;" parent="1" vertex="1">
          <mxGeometry x="385" y="632.5" width="50" height="30" as="geometry" />
        </mxCell>
        <mxCell id="EuI0nip87wkuVk568HCP-140" value="" style="endArrow=open;html=1;rounded=0;labelBackgroundColor=default;strokeColor=#808080;align=center;verticalAlign=middle;fontFamily=Helvetica;fontSize=11;fontColor=default;shape=connector;entryX=0;entryY=0.5;entryDx=0;entryDy=0;endFill=0;exitX=1.006;exitY=0.858;exitDx=0;exitDy=0;exitPerimeter=0;" parent="1" edge="1">
          <mxGeometry width="50" height="50" relative="1" as="geometry">
            <mxPoint x="355.72" y="661.2" as="sourcePoint" />
            <mxPoint x="385" y="661.5" as="targetPoint" />
          </mxGeometry>
        </mxCell>
        <mxCell id="EuI0nip87wkuVk568HCP-141" value="&lt;font&gt;imm_type&lt;/font&gt;" style="text;html=1;strokeColor=none;fillColor=none;align=center;verticalAlign=middle;whiteSpace=wrap;rounded=0;fontSize=11;fontFamily=Helvetica;fontColor=#808080;" parent="1" vertex="1">
          <mxGeometry x="385" y="647.5" width="60" height="30" as="geometry" />
        </mxCell>
        <mxCell id="EuI0nip87wkuVk568HCP-142" style="edgeStyle=orthogonalEdgeStyle;shape=connector;rounded=0;orthogonalLoop=1;jettySize=auto;html=1;entryX=0;entryY=0.75;entryDx=0;entryDy=0;labelBackgroundColor=default;strokeColor=#000000;align=center;verticalAlign=middle;fontFamily=Helvetica;fontSize=11;fontColor=default;endArrow=open;exitX=0.5;exitY=0;exitDx=0;exitDy=0;endFill=0;" parent="1" source="EuI0nip87wkuVk568HCP-144" target="EuI0nip87wkuVk568HCP-85" edge="1">
          <mxGeometry relative="1" as="geometry">
            <Array as="points">
              <mxPoint x="-129" y="304" />
            </Array>
          </mxGeometry>
        </mxCell>
        <mxCell id="EuI0nip87wkuVk568HCP-143" style="edgeStyle=orthogonalEdgeStyle;shape=connector;rounded=0;orthogonalLoop=1;jettySize=auto;html=1;labelBackgroundColor=default;strokeColor=#0000ff;align=center;verticalAlign=middle;fontFamily=Helvetica;fontSize=11;fontColor=default;endArrow=open;entryX=1;entryY=0.5;entryDx=0;entryDy=0;endFill=0;" parent="1" target="EuI0nip87wkuVk568HCP-144" edge="1" source="EuI0nip87wkuVk568HCP-145">
          <mxGeometry relative="1" as="geometry">
            <mxPoint x="-139" y="350" as="sourcePoint" />
          </mxGeometry>
        </mxCell>
        <mxCell id="EuI0nip87wkuVk568HCP-144" value="" style="shape=trapezoid;perimeter=trapezoidPerimeter;whiteSpace=wrap;html=1;fixedSize=1;rotation=90;size=13.269999999999982;fillColor=#FFFF33;" parent="1" vertex="1">
          <mxGeometry x="-175" y="293.89999999999986" width="70" height="22.2" as="geometry" />
        </mxCell>
        <mxCell id="EuI0nip87wkuVk568HCP-145" value="&lt;font color=&quot;#0000ff&quot;&gt;interrupt&lt;/font&gt;" style="text;html=1;align=center;verticalAlign=middle;resizable=0;points=[];autosize=1;strokeColor=none;fillColor=none;fontSize=11;fontFamily=Helvetica;fontColor=default;" parent="1" vertex="1">
          <mxGeometry x="-170" y="349.06" width="60" height="30" as="geometry" />
        </mxCell>
        <mxCell id="EuI0nip87wkuVk568HCP-146" value="&lt;b&gt;&lt;font style=&quot;font-size: 8px;&quot;&gt;ALU&lt;/font&gt;&lt;/b&gt;" style="text;html=1;strokeColor=none;fillColor=none;align=center;verticalAlign=middle;whiteSpace=wrap;rounded=0;fontSize=11;fontFamily=Helvetica;fontColor=default;" parent="1" vertex="1">
          <mxGeometry x="679" y="278.12" width="60" height="30" as="geometry" />
        </mxCell>
        <mxCell id="xwV4w1sUFIsXvJg-IXbo-48" style="edgeStyle=orthogonalEdgeStyle;rounded=0;orthogonalLoop=1;jettySize=auto;html=1;exitX=0;exitY=0.5;exitDx=0;exitDy=0;entryX=0;entryY=0.5;entryDx=0;entryDy=0;strokeColor=#0000FF;fontColor=#0000FF;" parent="1" source="EuI0nip87wkuVk568HCP-149" target="EuI0nip87wkuVk568HCP-115" edge="1">
          <mxGeometry relative="1" as="geometry">
            <Array as="points">
              <mxPoint x="875" y="680" />
              <mxPoint x="845" y="680" />
              <mxPoint x="845" y="606" />
            </Array>
          </mxGeometry>
        </mxCell>
        <mxCell id="EuI0nip87wkuVk568HCP-149" value="&lt;b&gt;&lt;font style=&quot;font-size: 13px;&quot;&gt;Timer&lt;/font&gt;&lt;/b&gt;" style="whiteSpace=wrap;html=1;aspect=fixed;fillColor=#3399FF;" parent="1" vertex="1">
          <mxGeometry x="875.0000000000001" y="662.5" width="80" height="80" as="geometry" />
        </mxCell>
        <mxCell id="xwV4w1sUFIsXvJg-IXbo-6" value="" style="endArrow=none;dashed=1;html=1;rounded=0;" parent="1" source="xwV4w1sUFIsXvJg-IXbo-8" edge="1">
          <mxGeometry width="50" height="50" relative="1" as="geometry">
            <mxPoint x="180" y="890" as="sourcePoint" />
            <mxPoint x="180" y="40" as="targetPoint" />
          </mxGeometry>
        </mxCell>
        <mxCell id="xwV4w1sUFIsXvJg-IXbo-9" value="" style="endArrow=none;dashed=1;html=1;rounded=0;" parent="1" target="xwV4w1sUFIsXvJg-IXbo-8" edge="1">
          <mxGeometry width="50" height="50" relative="1" as="geometry">
            <mxPoint x="180" y="890" as="sourcePoint" />
            <mxPoint x="180" y="40" as="targetPoint" />
          </mxGeometry>
        </mxCell>
        <mxCell id="xwV4w1sUFIsXvJg-IXbo-8" value="&lt;span style=&quot;font-size: 8px;&quot;&gt;&lt;b&gt;PC&lt;/b&gt;&lt;/span&gt;" style="rounded=0;whiteSpace=wrap;html=1;fillColor=#66FFFF;" parent="1" vertex="1">
          <mxGeometry x="160" y="122.96000000000001" width="35" height="54.07" as="geometry" />
        </mxCell>
        <mxCell id="xwV4w1sUFIsXvJg-IXbo-14" style="edgeStyle=orthogonalEdgeStyle;rounded=0;orthogonalLoop=1;jettySize=auto;html=1;exitX=1;exitY=0.5;exitDx=0;exitDy=0;entryX=0;entryY=0.75;entryDx=0;entryDy=0;" parent="1" source="xwV4w1sUFIsXvJg-IXbo-10" target="EuI0nip87wkuVk568HCP-17" edge="1">
          <mxGeometry relative="1" as="geometry" />
        </mxCell>
        <mxCell id="xwV4w1sUFIsXvJg-IXbo-10" value="&lt;span style=&quot;font-size: 8px;&quot;&gt;&lt;b&gt;IR&lt;/b&gt;&lt;/span&gt;" style="rounded=0;whiteSpace=wrap;html=1;fillColor=#66FFFF;" parent="1" vertex="1">
          <mxGeometry x="160" y="270" width="35" height="54.07" as="geometry" />
        </mxCell>
        <mxCell id="xwV4w1sUFIsXvJg-IXbo-12" value="" style="triangle;whiteSpace=wrap;html=1;rotation=-90;fillColor=#66FFFF;" parent="1" vertex="1">
          <mxGeometry x="167.5" y="304.06999999999994" width="20" height="20" as="geometry" />
        </mxCell>
        <mxCell id="xwV4w1sUFIsXvJg-IXbo-13" value="" style="triangle;whiteSpace=wrap;html=1;rotation=-90;fillColor=#66FFFF;" parent="1" vertex="1">
          <mxGeometry x="167.5" y="157.02999999999994" width="20" height="20" as="geometry" />
        </mxCell>
        <mxCell id="xwV4w1sUFIsXvJg-IXbo-18" value="" style="endArrow=classic;html=1;rounded=0;entryX=0;entryY=0.5;entryDx=0;entryDy=0;strokeColor=#4040ff;" parent="1" target="EuI0nip87wkuVk568HCP-116" edge="1">
          <mxGeometry width="50" height="50" relative="1" as="geometry">
            <mxPoint x="810" y="430" as="sourcePoint" />
            <mxPoint x="810" y="540" as="targetPoint" />
            <Array as="points">
              <mxPoint x="810" y="533" />
            </Array>
          </mxGeometry>
        </mxCell>
        <mxCell id="xwV4w1sUFIsXvJg-IXbo-21" value="" style="endArrow=none;dashed=1;html=1;rounded=0;" parent="1" edge="1">
          <mxGeometry width="50" height="50" relative="1" as="geometry">
            <mxPoint x="788" y="1040" as="sourcePoint" />
            <mxPoint x="790" y="38.46153846153846" as="targetPoint" />
          </mxGeometry>
        </mxCell>
        <mxCell id="xwV4w1sUFIsXvJg-IXbo-22" value="&lt;span style=&quot;font-size: 8px;&quot;&gt;&lt;b&gt;PC&lt;/b&gt;&lt;/span&gt;" style="rounded=0;whiteSpace=wrap;html=1;fillColor=#33FFFF;" parent="1" vertex="1">
          <mxGeometry x="770" y="122.96000000000001" width="35" height="54.07" as="geometry" />
        </mxCell>
        <mxCell id="xwV4w1sUFIsXvJg-IXbo-23" value="" style="triangle;whiteSpace=wrap;html=1;rotation=-90;fillColor=#66FFFF;" parent="1" vertex="1">
          <mxGeometry x="777.5" y="157.02999999999994" width="20" height="20" as="geometry" />
        </mxCell>
        <mxCell id="xwV4w1sUFIsXvJg-IXbo-24" value="&lt;span style=&quot;font-size: 8px;&quot;&gt;&lt;b&gt;ALU&lt;/b&gt;&lt;/span&gt;" style="rounded=0;whiteSpace=wrap;html=1;fillColor=#66FFFF;" parent="1" vertex="1">
          <mxGeometry x="770" y="262.8" width="35" height="54.07" as="geometry" />
        </mxCell>
        <mxCell id="xwV4w1sUFIsXvJg-IXbo-25" value="" style="triangle;whiteSpace=wrap;html=1;rotation=-90;fillColor=#66FFFF;" parent="1" vertex="1">
          <mxGeometry x="777.5" y="296.86999999999995" width="20" height="20" as="geometry" />
        </mxCell>
        <mxCell id="xwV4w1sUFIsXvJg-IXbo-26" value="&lt;span style=&quot;font-size: 8px;&quot;&gt;&lt;b&gt;WD&lt;/b&gt;&lt;/span&gt;" style="rounded=0;whiteSpace=wrap;html=1;fillColor=#66FFFF;" parent="1" vertex="1">
          <mxGeometry x="770" y="405.93" width="35" height="54.07" as="geometry" />
        </mxCell>
        <mxCell id="xwV4w1sUFIsXvJg-IXbo-27" value="" style="triangle;whiteSpace=wrap;html=1;rotation=-90;fillColor=#66FFFF;" parent="1" vertex="1">
          <mxGeometry x="777.5" y="439.99999999999994" width="20" height="20" as="geometry" />
        </mxCell>
        <mxCell id="xwV4w1sUFIsXvJg-IXbo-32" style="edgeStyle=orthogonalEdgeStyle;rounded=0;orthogonalLoop=1;jettySize=auto;html=1;entryX=0.57;entryY=0.83;entryDx=0;entryDy=0;entryPerimeter=0;strokeColor=#808080;endArrow=open;endFill=0;fontColor=#808080;" parent="1" edge="1">
          <mxGeometry relative="1" as="geometry">
            <mxPoint x="921.12" y="377.5" as="targetPoint" />
            <mxPoint x="921.12" y="416.5" as="sourcePoint" />
          </mxGeometry>
        </mxCell>
        <mxCell id="xwV4w1sUFIsXvJg-IXbo-33" value="&lt;font&gt;rd_en&lt;br&gt;&lt;/font&gt;" style="edgeLabel;html=1;align=center;verticalAlign=middle;resizable=0;points=[];fontSize=11;fontFamily=Helvetica;fontColor=#808080;" parent="xwV4w1sUFIsXvJg-IXbo-32" connectable="0" vertex="1">
          <mxGeometry x="-0.8885" relative="1" as="geometry">
            <mxPoint x="1" as="offset" />
          </mxGeometry>
        </mxCell>
        <mxCell id="xwV4w1sUFIsXvJg-IXbo-34" style="edgeStyle=orthogonalEdgeStyle;rounded=0;orthogonalLoop=1;jettySize=auto;html=1;entryX=0.57;entryY=0.83;entryDx=0;entryDy=0;entryPerimeter=0;strokeColor=#808080;endArrow=open;endFill=0;fontColor=#808080;" parent="1" edge="1">
          <mxGeometry relative="1" as="geometry">
            <mxPoint x="964.38" y="377.5" as="targetPoint" />
            <mxPoint x="964.38" y="416.5" as="sourcePoint" />
          </mxGeometry>
        </mxCell>
        <mxCell id="xwV4w1sUFIsXvJg-IXbo-35" value="&lt;font&gt;wr_en&lt;/font&gt;" style="edgeLabel;html=1;align=center;verticalAlign=middle;resizable=0;points=[];fontSize=11;fontFamily=Helvetica;fontColor=#808080;" parent="xwV4w1sUFIsXvJg-IXbo-34" connectable="0" vertex="1">
          <mxGeometry x="-0.8885" relative="1" as="geometry">
            <mxPoint x="1" as="offset" />
          </mxGeometry>
        </mxCell>
        <mxCell id="xwV4w1sUFIsXvJg-IXbo-36" value="&lt;span style=&quot;font-size: 8px;&quot;&gt;&lt;b&gt;RD&lt;/b&gt;&lt;/span&gt;" style="rounded=0;whiteSpace=wrap;html=1;fillColor=#66FFFF;" parent="1" vertex="1">
          <mxGeometry x="770" y="570" width="35" height="54.07" as="geometry" />
        </mxCell>
        <mxCell id="xwV4w1sUFIsXvJg-IXbo-37" value="" style="triangle;whiteSpace=wrap;html=1;rotation=-90;fillColor=#66FFFF;" parent="1" vertex="1">
          <mxGeometry x="777.5" y="604.0699999999999" width="20" height="20" as="geometry" />
        </mxCell>
        <mxCell id="xwV4w1sUFIsXvJg-IXbo-39" value="" style="endArrow=classic;html=1;rounded=0;entryX=0;entryY=0.5;entryDx=0;entryDy=0;strokeColor=#33FFFF;" parent="1" target="EuI0nip87wkuVk568HCP-9" edge="1">
          <mxGeometry width="50" height="50" relative="1" as="geometry">
            <mxPoint x="820" y="600" as="sourcePoint" />
            <mxPoint x="650" y="440" as="targetPoint" />
            <Array as="points">
              <mxPoint x="820" y="630" />
              <mxPoint x="460" y="630" />
              <mxPoint x="460" y="560" />
              <mxPoint x="390" y="560" />
              <mxPoint x="390" y="470" />
              <mxPoint x="390" y="285" />
            </Array>
          </mxGeometry>
        </mxCell>
        <mxCell id="xwV4w1sUFIsXvJg-IXbo-40" value="" style="endArrow=none;html=1;rounded=0;exitX=1;exitY=1;exitDx=0;exitDy=0;entryX=0;entryY=0.5;entryDx=0;entryDy=0;strokeColor=#33FFFF;" parent="1" source="EuI0nip87wkuVk568HCP-15" target="xwV4w1sUFIsXvJg-IXbo-36" edge="1">
          <mxGeometry width="50" height="50" relative="1" as="geometry">
            <mxPoint x="600" y="520" as="sourcePoint" />
            <mxPoint x="380" y="290" as="targetPoint" />
            <Array as="points">
              <mxPoint x="370" y="290" />
              <mxPoint x="370" y="540" />
              <mxPoint x="460" y="540" />
              <mxPoint x="520" y="540" />
              <mxPoint x="520" y="597" />
            </Array>
          </mxGeometry>
        </mxCell>
        <mxCell id="xwV4w1sUFIsXvJg-IXbo-43" value="" style="endArrow=open;html=1;rounded=0;labelBackgroundColor=default;strokeColor=#808080;align=center;verticalAlign=middle;fontFamily=Helvetica;fontSize=11;fontColor=default;shape=connector;entryX=0;entryY=0.5;entryDx=0;entryDy=0;endFill=0;" parent="1" target="xwV4w1sUFIsXvJg-IXbo-44" edge="1">
          <mxGeometry width="50" height="50" relative="1" as="geometry">
            <mxPoint x="355" y="677.17" as="sourcePoint" />
            <mxPoint x="435" y="677.5" as="targetPoint" />
          </mxGeometry>
        </mxCell>
        <mxCell id="xwV4w1sUFIsXvJg-IXbo-44" value="&lt;font&gt;mem_type_id_ex&lt;/font&gt;" style="text;html=1;strokeColor=none;fillColor=none;align=center;verticalAlign=middle;whiteSpace=wrap;rounded=0;fontSize=11;fontFamily=Helvetica;fontColor=#808080;" parent="1" vertex="1">
          <mxGeometry x="385" y="662.5" width="95" height="30" as="geometry" />
        </mxCell>
        <mxCell id="xwV4w1sUFIsXvJg-IXbo-46" value="&lt;span style=&quot;font-size: 8px;&quot;&gt;&lt;b&gt;IR&lt;/b&gt;&lt;/span&gt;" style="rounded=0;whiteSpace=wrap;html=1;fillColor=#66FFFF;" parent="1" vertex="1">
          <mxGeometry x="770" y="734.07" width="35" height="54.07" as="geometry" />
        </mxCell>
        <mxCell id="xwV4w1sUFIsXvJg-IXbo-47" value="" style="triangle;whiteSpace=wrap;html=1;rotation=-90;fillColor=#66FFFF;" parent="1" vertex="1">
          <mxGeometry x="777.5" y="768.14" width="20" height="20" as="geometry" />
        </mxCell>
        <mxCell id="xwV4w1sUFIsXvJg-IXbo-49" value="" style="endArrow=none;dashed=1;html=1;rounded=0;" parent="1" target="xwV4w1sUFIsXvJg-IXbo-41" edge="1">
          <mxGeometry width="50" height="50" relative="1" as="geometry">
            <mxPoint x="791" y="897.5" as="sourcePoint" />
            <mxPoint x="791" y="15.96153846153846" as="targetPoint" />
          </mxGeometry>
        </mxCell>
        <mxCell id="xwV4w1sUFIsXvJg-IXbo-41" value="&lt;span style=&quot;font-size: 8px;&quot;&gt;&lt;b&gt;Controller&lt;/b&gt;&lt;/span&gt;" style="rounded=0;whiteSpace=wrap;html=1;fillColor=#66FFFF;" parent="1" vertex="1">
          <mxGeometry x="763.5" y="817.5" width="50" height="130" as="geometry" />
        </mxCell>
        <mxCell id="xwV4w1sUFIsXvJg-IXbo-42" value="" style="triangle;whiteSpace=wrap;html=1;rotation=-90;fillColor=#66FFFF;" parent="1" vertex="1">
          <mxGeometry x="778.5" y="927.4999999999999" width="20" height="20" as="geometry" />
        </mxCell>
        <mxCell id="xwV4w1sUFIsXvJg-IXbo-60" value="" style="endArrow=open;html=1;rounded=0;labelBackgroundColor=default;strokeColor=#33FFFF;align=center;verticalAlign=middle;fontFamily=Helvetica;fontSize=11;fontColor=default;shape=connector;endFill=0;entryX=0.029;entryY=0.477;entryDx=0;entryDy=0;entryPerimeter=0;" parent="1" target="xwV4w1sUFIsXvJg-IXbo-61" edge="1">
          <mxGeometry width="50" height="50" relative="1" as="geometry">
            <mxPoint x="813.5" y="824.67" as="sourcePoint" />
            <mxPoint x="841" y="817.5" as="targetPoint" />
          </mxGeometry>
        </mxCell>
        <mxCell id="xwV4w1sUFIsXvJg-IXbo-61" value="&lt;font&gt;rf_en_im_wb&lt;br&gt;&lt;/font&gt;" style="text;html=1;strokeColor=none;fillColor=none;align=center;verticalAlign=middle;whiteSpace=wrap;rounded=0;fontSize=11;fontFamily=Helvetica;fontColor=#33FFFF;" parent="1" vertex="1">
          <mxGeometry x="841" y="810" width="80" height="30" as="geometry" />
        </mxCell>
        <mxCell id="xwV4w1sUFIsXvJg-IXbo-62" value="" style="endArrow=open;html=1;rounded=0;labelBackgroundColor=default;strokeColor=#33FFFF;align=center;verticalAlign=middle;fontFamily=Helvetica;fontSize=11;fontColor=default;shape=connector;entryX=0;entryY=0.5;entryDx=0;entryDy=0;endFill=0;" parent="1" target="xwV4w1sUFIsXvJg-IXbo-63" edge="1">
          <mxGeometry width="50" height="50" relative="1" as="geometry">
            <mxPoint x="813.5" y="838.67" as="sourcePoint" />
            <mxPoint x="893.5" y="839" as="targetPoint" />
          </mxGeometry>
        </mxCell>
        <mxCell id="xwV4w1sUFIsXvJg-IXbo-63" value="&lt;font&gt;sel_wb_im_wb&lt;/font&gt;" style="text;html=1;strokeColor=none;fillColor=none;align=center;verticalAlign=middle;whiteSpace=wrap;rounded=0;fontSize=11;fontFamily=Helvetica;fontColor=#33FFFF;" parent="1" vertex="1">
          <mxGeometry x="843.5" y="824" width="77.5" height="30" as="geometry" />
        </mxCell>
        <mxCell id="xwV4w1sUFIsXvJg-IXbo-64" value="" style="endArrow=open;html=1;rounded=0;labelBackgroundColor=default;strokeColor=#33FFFF;align=center;verticalAlign=middle;fontFamily=Helvetica;fontSize=11;fontColor=default;shape=connector;entryX=0;entryY=0.5;entryDx=0;entryDy=0;endFill=0;" parent="1" target="xwV4w1sUFIsXvJg-IXbo-65" edge="1">
          <mxGeometry width="50" height="50" relative="1" as="geometry">
            <mxPoint x="813.5" y="854.67" as="sourcePoint" />
            <mxPoint x="893.5" y="855" as="targetPoint" />
          </mxGeometry>
        </mxCell>
        <mxCell id="xwV4w1sUFIsXvJg-IXbo-65" value="&lt;font&gt;wr_en_im_wb&lt;/font&gt;" style="text;html=1;strokeColor=none;fillColor=none;align=center;verticalAlign=middle;whiteSpace=wrap;rounded=0;fontSize=11;fontFamily=Helvetica;fontColor=#33FFFF;" parent="1" vertex="1">
          <mxGeometry x="843.5" y="840" width="77.5" height="30" as="geometry" />
        </mxCell>
        <mxCell id="xwV4w1sUFIsXvJg-IXbo-66" value="" style="endArrow=open;html=1;rounded=0;labelBackgroundColor=default;strokeColor=#33FFFF;align=center;verticalAlign=middle;fontFamily=Helvetica;fontSize=11;fontColor=default;shape=connector;entryX=0;entryY=0.5;entryDx=0;entryDy=0;endFill=0;" parent="1" target="xwV4w1sUFIsXvJg-IXbo-67" edge="1">
          <mxGeometry width="50" height="50" relative="1" as="geometry">
            <mxPoint x="813.5" y="868.67" as="sourcePoint" />
            <mxPoint x="893.5" y="869" as="targetPoint" />
          </mxGeometry>
        </mxCell>
        <mxCell id="xwV4w1sUFIsXvJg-IXbo-67" value="&lt;font&gt;rd_en_im_wb&lt;br&gt;&lt;/font&gt;" style="text;html=1;strokeColor=none;fillColor=none;align=center;verticalAlign=middle;whiteSpace=wrap;rounded=0;fontSize=11;fontFamily=Helvetica;fontColor=#33FFFF;" parent="1" vertex="1">
          <mxGeometry x="843.5" y="854" width="77.5" height="30" as="geometry" />
        </mxCell>
        <mxCell id="xwV4w1sUFIsXvJg-IXbo-68" value="" style="endArrow=open;html=1;rounded=0;labelBackgroundColor=default;strokeColor=#33FFFF;align=center;verticalAlign=middle;fontFamily=Helvetica;fontSize=11;fontColor=default;shape=connector;entryX=0;entryY=0.5;entryDx=0;entryDy=0;endFill=0;" parent="1" target="xwV4w1sUFIsXvJg-IXbo-69" edge="1">
          <mxGeometry width="50" height="50" relative="1" as="geometry">
            <mxPoint x="813.5" y="884.67" as="sourcePoint" />
            <mxPoint x="893.5" y="885" as="targetPoint" />
          </mxGeometry>
        </mxCell>
        <mxCell id="xwV4w1sUFIsXvJg-IXbo-69" value="&lt;font&gt;mem_type_im_wb&lt;br&gt;&lt;/font&gt;" style="text;html=1;strokeColor=none;fillColor=none;align=center;verticalAlign=middle;whiteSpace=wrap;rounded=0;fontSize=11;fontFamily=Helvetica;fontColor=#33FFFF;" parent="1" vertex="1">
          <mxGeometry x="843.5" y="870" width="97.5" height="30" as="geometry" />
        </mxCell>
        <mxCell id="xwV4w1sUFIsXvJg-IXbo-71" value="" style="endArrow=open;html=1;rounded=0;labelBackgroundColor=default;strokeColor=#33FFFF;align=center;verticalAlign=middle;fontFamily=Helvetica;fontSize=11;fontColor=#33FFFF;shape=connector;endFill=0;entryX=0.029;entryY=0.477;entryDx=0;entryDy=0;entryPerimeter=0;" parent="1" edge="1">
          <mxGeometry width="50" height="50" relative="1" as="geometry">
            <mxPoint x="733" y="826.17" as="sourcePoint" />
            <mxPoint x="762.5" y="826" as="targetPoint" />
          </mxGeometry>
        </mxCell>
        <mxCell id="xwV4w1sUFIsXvJg-IXbo-72" value="" style="endArrow=open;html=1;rounded=0;labelBackgroundColor=default;strokeColor=#33FFFF;align=center;verticalAlign=middle;fontFamily=Helvetica;fontSize=11;fontColor=#33FFFF;shape=connector;entryX=0;entryY=0.5;entryDx=0;entryDy=0;endFill=0;" parent="1" edge="1">
          <mxGeometry width="50" height="50" relative="1" as="geometry">
            <mxPoint x="733" y="840.17" as="sourcePoint" />
            <mxPoint x="763.5" y="840.5" as="targetPoint" />
          </mxGeometry>
        </mxCell>
        <mxCell id="xwV4w1sUFIsXvJg-IXbo-73" value="" style="endArrow=open;html=1;rounded=0;labelBackgroundColor=default;strokeColor=#33FFFF;align=center;verticalAlign=middle;fontFamily=Helvetica;fontSize=11;fontColor=#33FFFF;shape=connector;entryX=0;entryY=0.5;entryDx=0;entryDy=0;endFill=0;" parent="1" edge="1">
          <mxGeometry width="50" height="50" relative="1" as="geometry">
            <mxPoint x="733" y="856.17" as="sourcePoint" />
            <mxPoint x="763.5" y="857" as="targetPoint" />
          </mxGeometry>
        </mxCell>
        <mxCell id="xwV4w1sUFIsXvJg-IXbo-74" value="" style="endArrow=open;html=1;rounded=0;labelBackgroundColor=default;strokeColor=#33FFFF;align=center;verticalAlign=middle;fontFamily=Helvetica;fontSize=11;fontColor=#33FFFF;shape=connector;entryX=0;entryY=0.5;entryDx=0;entryDy=0;endFill=0;" parent="1" edge="1">
          <mxGeometry width="50" height="50" relative="1" as="geometry">
            <mxPoint x="733" y="870.17" as="sourcePoint" />
            <mxPoint x="763.5" y="871" as="targetPoint" />
          </mxGeometry>
        </mxCell>
        <mxCell id="xwV4w1sUFIsXvJg-IXbo-75" value="" style="endArrow=open;html=1;rounded=0;labelBackgroundColor=default;strokeColor=#33FFFF;align=center;verticalAlign=middle;fontFamily=Helvetica;fontSize=11;fontColor=#33FFFF;shape=connector;entryX=0;entryY=0.5;entryDx=0;entryDy=0;endFill=0;" parent="1" edge="1">
          <mxGeometry width="50" height="50" relative="1" as="geometry">
            <mxPoint x="733" y="883.67" as="sourcePoint" />
            <mxPoint x="763.5" y="884.5" as="targetPoint" />
          </mxGeometry>
        </mxCell>
        <mxCell id="xwV4w1sUFIsXvJg-IXbo-76" value="&lt;font&gt;rf_en_id_ex&lt;br&gt;&lt;/font&gt;" style="text;html=1;strokeColor=none;fillColor=none;align=center;verticalAlign=middle;whiteSpace=wrap;rounded=0;fontSize=11;fontFamily=Helvetica;fontColor=#33FFFF;" parent="1" vertex="1">
          <mxGeometry x="660" y="810" width="80" height="30" as="geometry" />
        </mxCell>
        <mxCell id="xwV4w1sUFIsXvJg-IXbo-77" value="&lt;font&gt;sel_wb_id_ex&lt;/font&gt;" style="text;html=1;strokeColor=none;fillColor=none;align=center;verticalAlign=middle;whiteSpace=wrap;rounded=0;fontSize=11;fontFamily=Helvetica;fontColor=#33FFFF;" parent="1" vertex="1">
          <mxGeometry x="657.25" y="824" width="77.5" height="30" as="geometry" />
        </mxCell>
        <mxCell id="xwV4w1sUFIsXvJg-IXbo-78" value="&lt;font&gt;wr_en_id_ex&lt;/font&gt;" style="text;html=1;strokeColor=none;fillColor=none;align=center;verticalAlign=middle;whiteSpace=wrap;rounded=0;fontSize=11;fontFamily=Helvetica;fontColor=#33FFFF;" parent="1" vertex="1">
          <mxGeometry x="660" y="840" width="77.5" height="30" as="geometry" />
        </mxCell>
        <mxCell id="xwV4w1sUFIsXvJg-IXbo-79" value="&lt;font&gt;rd_en_id_ex&lt;br&gt;&lt;/font&gt;" style="text;html=1;strokeColor=none;fillColor=none;align=center;verticalAlign=middle;whiteSpace=wrap;rounded=0;fontSize=11;fontFamily=Helvetica;fontColor=#33FFFF;" parent="1" vertex="1">
          <mxGeometry x="660" y="854" width="77.5" height="30" as="geometry" />
        </mxCell>
        <mxCell id="xwV4w1sUFIsXvJg-IXbo-80" value="&lt;font&gt;mem_type_id_ex&lt;br&gt;&lt;/font&gt;" style="text;html=1;strokeColor=none;fillColor=none;align=center;verticalAlign=middle;whiteSpace=wrap;rounded=0;fontSize=11;fontFamily=Helvetica;fontColor=#33FFFF;" parent="1" vertex="1">
          <mxGeometry x="640" y="867.5" width="97.5" height="30" as="geometry" />
        </mxCell>
        <mxCell id="xwV4w1sUFIsXvJg-IXbo-81" value="" style="endArrow=open;html=1;rounded=0;labelBackgroundColor=default;strokeColor=#808080;align=center;verticalAlign=middle;fontFamily=Helvetica;fontSize=11;fontColor=default;shape=connector;entryX=0;entryY=0.5;entryDx=0;entryDy=0;endFill=0;" parent="1" target="xwV4w1sUFIsXvJg-IXbo-82" edge="1">
          <mxGeometry width="50" height="50" relative="1" as="geometry">
            <mxPoint x="355" y="692.17" as="sourcePoint" />
            <mxPoint x="435" y="692.5" as="targetPoint" />
          </mxGeometry>
        </mxCell>
        <mxCell id="xwV4w1sUFIsXvJg-IXbo-82" value="&lt;font&gt;rd_en_id_ex&lt;/font&gt;" style="text;html=1;strokeColor=none;fillColor=none;align=center;verticalAlign=middle;whiteSpace=wrap;rounded=0;fontSize=11;fontFamily=Helvetica;fontColor=#808080;" parent="1" vertex="1">
          <mxGeometry x="385" y="677.5" width="75" height="30" as="geometry" />
        </mxCell>
        <mxCell id="xwV4w1sUFIsXvJg-IXbo-83" value="" style="endArrow=open;html=1;rounded=0;labelBackgroundColor=default;strokeColor=#808080;align=center;verticalAlign=middle;fontFamily=Helvetica;fontSize=11;fontColor=default;shape=connector;entryX=0;entryY=0.5;entryDx=0;entryDy=0;endFill=0;" parent="1" target="xwV4w1sUFIsXvJg-IXbo-84" edge="1">
          <mxGeometry width="50" height="50" relative="1" as="geometry">
            <mxPoint x="355" y="704.67" as="sourcePoint" />
            <mxPoint x="435" y="705" as="targetPoint" />
          </mxGeometry>
        </mxCell>
        <mxCell id="xwV4w1sUFIsXvJg-IXbo-84" value="&lt;font&gt;wr_en_id_ex&lt;/font&gt;" style="text;html=1;strokeColor=none;fillColor=none;align=center;verticalAlign=middle;whiteSpace=wrap;rounded=0;fontSize=11;fontFamily=Helvetica;fontColor=#808080;" parent="1" vertex="1">
          <mxGeometry x="385" y="690" width="75" height="30" as="geometry" />
        </mxCell>
        <mxCell id="xwV4w1sUFIsXvJg-IXbo-86" value="" style="endArrow=open;html=1;rounded=0;labelBackgroundColor=default;strokeColor=#33FFFF;align=center;verticalAlign=middle;fontFamily=Helvetica;fontSize=11;fontColor=#33FFFF;shape=connector;entryX=0;entryY=0.5;entryDx=0;entryDy=0;endFill=0;" parent="1" edge="1">
          <mxGeometry width="50" height="50" relative="1" as="geometry">
            <mxPoint x="733" y="900.17" as="sourcePoint" />
            <mxPoint x="763.5" y="901" as="targetPoint" />
          </mxGeometry>
        </mxCell>
        <mxCell id="xwV4w1sUFIsXvJg-IXbo-87" value="&lt;font&gt;is_mret_id_ex&lt;br&gt;&lt;/font&gt;" style="text;html=1;strokeColor=none;fillColor=none;align=center;verticalAlign=middle;whiteSpace=wrap;rounded=0;fontSize=11;fontFamily=Helvetica;fontColor=#33FFFF;" parent="1" vertex="1">
          <mxGeometry x="651" y="884" width="86.5" height="30" as="geometry" />
        </mxCell>
        <mxCell id="xwV4w1sUFIsXvJg-IXbo-89" value="" style="endArrow=open;html=1;rounded=0;labelBackgroundColor=default;strokeColor=#33FFFF;align=center;verticalAlign=middle;fontFamily=Helvetica;fontSize=11;fontColor=#33FFFF;shape=connector;entryX=0;entryY=0.5;entryDx=0;entryDy=0;endFill=0;" parent="1" edge="1">
          <mxGeometry width="50" height="50" relative="1" as="geometry">
            <mxPoint x="733" y="913.67" as="sourcePoint" />
            <mxPoint x="763.5" y="914.5" as="targetPoint" />
          </mxGeometry>
        </mxCell>
        <mxCell id="xwV4w1sUFIsXvJg-IXbo-90" value="&lt;font&gt;csr_rd_id_ex&lt;br&gt;&lt;/font&gt;" style="text;html=1;strokeColor=none;fillColor=none;align=center;verticalAlign=middle;whiteSpace=wrap;rounded=0;fontSize=11;fontFamily=Helvetica;fontColor=#33FFFF;" parent="1" vertex="1">
          <mxGeometry x="661" y="897.5" width="76.5" height="30" as="geometry" />
        </mxCell>
        <mxCell id="xwV4w1sUFIsXvJg-IXbo-91" value="" style="endArrow=open;html=1;rounded=0;labelBackgroundColor=default;strokeColor=#33FFFF;align=center;verticalAlign=middle;fontFamily=Helvetica;fontSize=11;fontColor=#33FFFF;shape=connector;entryX=0;entryY=0.5;entryDx=0;entryDy=0;endFill=0;" parent="1" edge="1">
          <mxGeometry width="50" height="50" relative="1" as="geometry">
            <mxPoint x="733" y="930.17" as="sourcePoint" />
            <mxPoint x="763.5" y="931" as="targetPoint" />
          </mxGeometry>
        </mxCell>
        <mxCell id="xwV4w1sUFIsXvJg-IXbo-92" value="&lt;font&gt;csr_wr_id_ex&lt;br&gt;&lt;/font&gt;" style="text;html=1;strokeColor=none;fillColor=none;align=center;verticalAlign=middle;whiteSpace=wrap;rounded=0;fontSize=11;fontFamily=Helvetica;fontColor=#33FFFF;" parent="1" vertex="1">
          <mxGeometry x="661" y="914" width="76.5" height="30" as="geometry" />
        </mxCell>
        <mxCell id="xwV4w1sUFIsXvJg-IXbo-93" value="" style="endArrow=open;html=1;rounded=0;labelBackgroundColor=default;strokeColor=#33FFFF;align=center;verticalAlign=middle;fontFamily=Helvetica;fontSize=11;fontColor=default;shape=connector;entryX=0;entryY=0.5;entryDx=0;entryDy=0;endFill=0;" parent="1" target="xwV4w1sUFIsXvJg-IXbo-94" edge="1">
          <mxGeometry width="50" height="50" relative="1" as="geometry">
            <mxPoint x="813.5" y="898.67" as="sourcePoint" />
            <mxPoint x="893.5" y="899" as="targetPoint" />
          </mxGeometry>
        </mxCell>
        <mxCell id="xwV4w1sUFIsXvJg-IXbo-94" value="&lt;font&gt;is_mret_im_wb&lt;br&gt;&lt;/font&gt;" style="text;html=1;strokeColor=none;fillColor=none;align=center;verticalAlign=middle;whiteSpace=wrap;rounded=0;fontSize=11;fontFamily=Helvetica;fontColor=#33FFFF;" parent="1" vertex="1">
          <mxGeometry x="843.5" y="884" width="87.5" height="30" as="geometry" />
        </mxCell>
        <mxCell id="xwV4w1sUFIsXvJg-IXbo-95" value="" style="endArrow=open;html=1;rounded=0;labelBackgroundColor=default;strokeColor=#33FFFF;align=center;verticalAlign=middle;fontFamily=Helvetica;fontSize=11;fontColor=default;shape=connector;entryX=0;entryY=0.5;entryDx=0;entryDy=0;endFill=0;" parent="1" target="xwV4w1sUFIsXvJg-IXbo-96" edge="1">
          <mxGeometry width="50" height="50" relative="1" as="geometry">
            <mxPoint x="813.5" y="914.67" as="sourcePoint" />
            <mxPoint x="893.5" y="915" as="targetPoint" />
          </mxGeometry>
        </mxCell>
        <mxCell id="xwV4w1sUFIsXvJg-IXbo-96" value="&lt;font&gt;csr_rd_im_wb&lt;br&gt;&lt;/font&gt;" style="text;html=1;strokeColor=none;fillColor=none;align=center;verticalAlign=middle;whiteSpace=wrap;rounded=0;fontSize=11;fontFamily=Helvetica;fontColor=#33FFFF;" parent="1" vertex="1">
          <mxGeometry x="843.5" y="900" width="77.5" height="30" as="geometry" />
        </mxCell>
        <mxCell id="xwV4w1sUFIsXvJg-IXbo-97" value="" style="endArrow=open;html=1;rounded=0;labelBackgroundColor=default;strokeColor=#33FFFF;align=center;verticalAlign=middle;fontFamily=Helvetica;fontSize=11;fontColor=default;shape=connector;entryX=0;entryY=0.5;entryDx=0;entryDy=0;endFill=0;" parent="1" target="xwV4w1sUFIsXvJg-IXbo-98" edge="1">
          <mxGeometry width="50" height="50" relative="1" as="geometry">
            <mxPoint x="813.5" y="932.17" as="sourcePoint" />
            <mxPoint x="893.5" y="932.5" as="targetPoint" />
          </mxGeometry>
        </mxCell>
        <mxCell id="xwV4w1sUFIsXvJg-IXbo-98" value="&lt;font&gt;csr_wr_im_wb&lt;br&gt;&lt;/font&gt;" style="text;html=1;strokeColor=none;fillColor=none;align=center;verticalAlign=middle;whiteSpace=wrap;rounded=0;fontSize=11;fontFamily=Helvetica;fontColor=#33FFFF;" parent="1" vertex="1">
          <mxGeometry x="843.5" y="917.5" width="77.5" height="30" as="geometry" />
        </mxCell>
        <mxCell id="xwV4w1sUFIsXvJg-IXbo-99" value="" style="endArrow=open;html=1;rounded=0;labelBackgroundColor=default;strokeColor=#808080;align=center;verticalAlign=middle;fontFamily=Helvetica;fontSize=11;fontColor=default;shape=connector;entryX=0;entryY=0.5;entryDx=0;entryDy=0;endFill=0;" parent="1" target="xwV4w1sUFIsXvJg-IXbo-100" edge="1">
          <mxGeometry width="50" height="50" relative="1" as="geometry">
            <mxPoint x="355" y="718.74" as="sourcePoint" />
            <mxPoint x="435" y="719.0699999999999" as="targetPoint" />
          </mxGeometry>
        </mxCell>
        <mxCell id="xwV4w1sUFIsXvJg-IXbo-100" value="&lt;font&gt;is_mret_id_ex&lt;br&gt;&lt;/font&gt;" style="text;html=1;strokeColor=none;fillColor=none;align=center;verticalAlign=middle;whiteSpace=wrap;rounded=0;fontSize=11;fontFamily=Helvetica;fontColor=#808080;" parent="1" vertex="1">
          <mxGeometry x="385" y="704.07" width="85" height="30" as="geometry" />
        </mxCell>
        <mxCell id="xwV4w1sUFIsXvJg-IXbo-101" value="" style="endArrow=open;html=1;rounded=0;labelBackgroundColor=default;strokeColor=#808080;align=center;verticalAlign=middle;fontFamily=Helvetica;fontSize=11;fontColor=default;shape=connector;entryX=0;entryY=0.5;entryDx=0;entryDy=0;endFill=0;" parent="1" target="xwV4w1sUFIsXvJg-IXbo-102" edge="1">
          <mxGeometry width="50" height="50" relative="1" as="geometry">
            <mxPoint x="355" y="734.67" as="sourcePoint" />
            <mxPoint x="435" y="734.9999999999999" as="targetPoint" />
          </mxGeometry>
        </mxCell>
        <mxCell id="xwV4w1sUFIsXvJg-IXbo-102" value="&lt;font&gt;csr_rd_id_ex&lt;br&gt;&lt;/font&gt;" style="text;html=1;strokeColor=none;fillColor=none;align=center;verticalAlign=middle;whiteSpace=wrap;rounded=0;fontSize=11;fontFamily=Helvetica;fontColor=#808080;" parent="1" vertex="1">
          <mxGeometry x="385" y="720" width="75" height="30" as="geometry" />
        </mxCell>
        <mxCell id="xwV4w1sUFIsXvJg-IXbo-103" value="" style="endArrow=open;html=1;rounded=0;labelBackgroundColor=default;strokeColor=#808080;align=center;verticalAlign=middle;fontFamily=Helvetica;fontSize=11;fontColor=default;shape=connector;entryX=0;entryY=0.5;entryDx=0;entryDy=0;endFill=0;" parent="1" target="xwV4w1sUFIsXvJg-IXbo-104" edge="1">
          <mxGeometry width="50" height="50" relative="1" as="geometry">
            <mxPoint x="355" y="748.74" as="sourcePoint" />
            <mxPoint x="435" y="749.0699999999999" as="targetPoint" />
          </mxGeometry>
        </mxCell>
        <mxCell id="xwV4w1sUFIsXvJg-IXbo-104" value="&lt;font&gt;csr_wr_id_ex&lt;br&gt;&lt;/font&gt;" style="text;html=1;strokeColor=none;fillColor=none;align=center;verticalAlign=middle;whiteSpace=wrap;rounded=0;fontSize=11;fontFamily=Helvetica;fontColor=#808080;" parent="1" vertex="1">
          <mxGeometry x="385" y="734.07" width="75" height="30" as="geometry" />
        </mxCell>
        <mxCell id="b3uctcBHCQjBajmpuFDN-4" value="" style="edgeStyle=orthogonalEdgeStyle;rounded=0;orthogonalLoop=1;jettySize=auto;html=1;exitX=1;exitY=0.25;exitDx=0;exitDy=0;exitPerimeter=0;endArrow=none;endFill=0;" parent="1" source="EuI0nip87wkuVk568HCP-3" target="b3uctcBHCQjBajmpuFDN-1" edge="1">
          <mxGeometry relative="1" as="geometry">
            <mxPoint x="505" y="263" as="sourcePoint" />
            <mxPoint x="545" y="262.1" as="targetPoint" />
          </mxGeometry>
        </mxCell>
        <mxCell id="b3uctcBHCQjBajmpuFDN-1" value="" style="shape=trapezoid;perimeter=trapezoidPerimeter;whiteSpace=wrap;html=1;fixedSize=1;rotation=90;size=13.269999999999982;fillColor=#994C00;" parent="1" vertex="1">
          <mxGeometry x="510" y="251.79" width="58.28" height="20.63" as="geometry" />
        </mxCell>
        <mxCell id="b3uctcBHCQjBajmpuFDN-5" value="" style="shape=trapezoid;perimeter=trapezoidPerimeter;whiteSpace=wrap;html=1;fixedSize=1;rotation=90;size=13.269999999999982;fillColor=#994C00;" parent="1" vertex="1">
          <mxGeometry x="510" y="316.86999999999995" width="58.28" height="20.63" as="geometry" />
        </mxCell>
        <mxCell id="b3uctcBHCQjBajmpuFDN-9" value="" style="endArrow=classic;html=1;rounded=0;entryX=0.25;entryY=1;entryDx=0;entryDy=0;strokeColor=#994C00;" parent="1" target="b3uctcBHCQjBajmpuFDN-1" edge="1">
          <mxGeometry width="50" height="50" relative="1" as="geometry">
            <mxPoint x="810" y="295" as="sourcePoint" />
            <mxPoint x="530" y="420" as="targetPoint" />
            <Array as="points">
              <mxPoint x="810" y="190" />
              <mxPoint x="510" y="190" />
              <mxPoint x="510" y="248" />
            </Array>
          </mxGeometry>
        </mxCell>
        <mxCell id="b3uctcBHCQjBajmpuFDN-10" value="" style="endArrow=classic;html=1;rounded=0;entryX=0.25;entryY=1;entryDx=0;entryDy=0;fillColor=#1CFF03;edgeStyle=orthogonalEdgeStyle;strokeColor=#994C00;" parent="1" edge="1">
          <mxGeometry width="50" height="50" relative="1" as="geometry">
            <mxPoint x="510" y="248" as="sourcePoint" />
            <mxPoint x="528.8249999999998" y="310.61500000000024" as="targetPoint" />
            <Array as="points">
              <mxPoint x="510" y="311" />
            </Array>
          </mxGeometry>
        </mxCell>
        <mxCell id="b3uctcBHCQjBajmpuFDN-13" value="" style="endArrow=classic;html=1;rounded=0;entryX=0;entryY=0.5;entryDx=0;entryDy=0;strokeColor=#FF9933;exitX=0.5;exitY=1;exitDx=0;exitDy=0;fontColor=#FF9933;" parent="1" target="b3uctcBHCQjBajmpuFDN-1" edge="1" source="b3uctcBHCQjBajmpuFDN-14">
          <mxGeometry width="50" height="50" relative="1" as="geometry">
            <mxPoint x="550" y="229.15343915343917" as="sourcePoint" />
            <mxPoint x="550" y="279.84" as="targetPoint" />
            <Array as="points">
              <mxPoint x="539" y="230" />
            </Array>
          </mxGeometry>
        </mxCell>
        <mxCell id="b3uctcBHCQjBajmpuFDN-14" value="&lt;font&gt;sel_for_a&lt;/font&gt;" style="text;html=1;strokeColor=none;fillColor=none;align=center;verticalAlign=middle;whiteSpace=wrap;rounded=0;fontColor=#FF9933;" parent="1" vertex="1">
          <mxGeometry x="519.14" y="210" width="40" height="10" as="geometry" />
        </mxCell>
        <mxCell id="b3uctcBHCQjBajmpuFDN-15" value="" style="endArrow=classic;html=1;rounded=0;entryX=0.885;entryY=0.458;entryDx=0;entryDy=0;entryPerimeter=0;strokeColor=#FF9933;" parent="1" target="b3uctcBHCQjBajmpuFDN-5" edge="1">
          <mxGeometry width="50" height="50" relative="1" as="geometry">
            <mxPoint x="540" y="370" as="sourcePoint" />
            <mxPoint x="540" y="365.92" as="targetPoint" />
          </mxGeometry>
        </mxCell>
        <mxCell id="b3uctcBHCQjBajmpuFDN-16" value="&lt;font&gt;sel_for_b&lt;/font&gt;" style="text;html=1;strokeColor=none;fillColor=none;align=center;verticalAlign=middle;whiteSpace=wrap;rounded=0;fontColor=#FF9933;labelBackgroundColor=default;" parent="1" vertex="1">
          <mxGeometry x="519.14" y="370" width="30" height="10" as="geometry" />
        </mxCell>
        <mxCell id="b3uctcBHCQjBajmpuFDN-18" value="&lt;font style=&quot;&quot;&gt;&lt;b style=&quot;&quot;&gt;&lt;font style=&quot;font-size: 8px;&quot;&gt;Hazard detection Unit&lt;/font&gt;&lt;/b&gt;&lt;br&gt;&lt;/font&gt;" style="whiteSpace=wrap;html=1;strokeColor=#000000;fillColor=#FF9933;" parent="1" vertex="1">
          <mxGeometry x="622.5" y="20" width="137.5" height="70" as="geometry" />
        </mxCell>
        <mxCell id="b3uctcBHCQjBajmpuFDN-23" value="Text" style="text;html=1;strokeColor=none;fillColor=none;align=center;verticalAlign=middle;whiteSpace=wrap;rounded=0;" parent="1" vertex="1">
          <mxGeometry x="580" y="200" width="60" height="30" as="geometry" />
        </mxCell>
        <mxCell id="b3uctcBHCQjBajmpuFDN-27" style="edgeStyle=orthogonalEdgeStyle;rounded=0;orthogonalLoop=1;jettySize=auto;html=1;entryX=0.069;entryY=0.473;entryDx=0;entryDy=0;strokeColor=#0000FF;entryPerimeter=0;" parent="1" target="b3uctcBHCQjBajmpuFDN-31" edge="1">
          <mxGeometry relative="1" as="geometry">
            <Array as="points">
              <mxPoint x="380" y="35" />
            </Array>
            <mxPoint x="380" y="265" as="sourcePoint" />
            <mxPoint x="610.94" y="35.42" as="targetPoint" />
          </mxGeometry>
        </mxCell>
        <mxCell id="b3uctcBHCQjBajmpuFDN-29" value="&lt;font style=&quot;font-size: 7px;&quot;&gt;rs1&lt;/font&gt;" style="text;html=1;strokeColor=none;fillColor=none;align=center;verticalAlign=middle;whiteSpace=wrap;rounded=0;" parent="1" vertex="1">
          <mxGeometry x="620" y="20" width="20" height="10" as="geometry" />
        </mxCell>
        <mxCell id="b3uctcBHCQjBajmpuFDN-30" value="&lt;font style=&quot;font-size: 8px;&quot;&gt;rd&lt;/font&gt;" style="text;html=1;strokeColor=none;fillColor=none;align=center;verticalAlign=middle;whiteSpace=wrap;rounded=0;" parent="1" vertex="1">
          <mxGeometry x="620" y="40" width="20" height="10" as="geometry" />
        </mxCell>
        <mxCell id="b3uctcBHCQjBajmpuFDN-31" value="&lt;font style=&quot;font-size: 7px;&quot;&gt;rs2&lt;/font&gt;" style="text;html=1;strokeColor=none;fillColor=none;align=center;verticalAlign=middle;whiteSpace=wrap;rounded=0;" parent="1" vertex="1">
          <mxGeometry x="620" y="30" width="20" height="10" as="geometry" />
        </mxCell>
        <mxCell id="b3uctcBHCQjBajmpuFDN-35" style="edgeStyle=orthogonalEdgeStyle;rounded=0;orthogonalLoop=1;jettySize=auto;html=1;exitX=1;exitY=0.5;exitDx=0;exitDy=0;strokeColor=#FF9933;" parent="1" edge="1">
          <mxGeometry relative="1" as="geometry">
            <mxPoint x="784.75" y="34.93761904761904" as="targetPoint" />
            <mxPoint x="754.75" y="34.89" as="sourcePoint" />
          </mxGeometry>
        </mxCell>
        <mxCell id="b3uctcBHCQjBajmpuFDN-32" value="&lt;span style=&quot;font-size: 8px;&quot;&gt;for_a&lt;/span&gt;" style="text;html=1;strokeColor=none;fillColor=none;align=center;verticalAlign=middle;whiteSpace=wrap;rounded=0;" parent="1" vertex="1">
          <mxGeometry x="734.75" y="30" width="20" height="10" as="geometry" />
        </mxCell>
        <mxCell id="b3uctcBHCQjBajmpuFDN-36" style="edgeStyle=orthogonalEdgeStyle;rounded=0;orthogonalLoop=1;jettySize=auto;html=1;strokeColor=#FF9933;" parent="1" edge="1">
          <mxGeometry relative="1" as="geometry">
            <mxPoint x="785.96" y="70" as="targetPoint" />
            <mxPoint x="754.75" y="70" as="sourcePoint" />
            <Array as="points">
              <mxPoint x="755.96" y="70" />
              <mxPoint x="785.96" y="70" />
            </Array>
          </mxGeometry>
        </mxCell>
        <mxCell id="b3uctcBHCQjBajmpuFDN-34" value="&lt;span style=&quot;font-size: 8px;&quot;&gt;for_b&lt;/span&gt;" style="text;html=1;strokeColor=none;fillColor=none;align=center;verticalAlign=middle;whiteSpace=wrap;rounded=0;" parent="1" vertex="1">
          <mxGeometry x="737.5" y="60" width="20" height="10" as="geometry" />
        </mxCell>
        <mxCell id="b3uctcBHCQjBajmpuFDN-41" value="&lt;font style=&quot;font-size: 6px;&quot;&gt;wb_sel&lt;/font&gt;" style="text;html=1;strokeColor=none;fillColor=none;align=left;verticalAlign=middle;whiteSpace=wrap;rounded=0;" parent="1" vertex="1">
          <mxGeometry x="621.79" y="60" width="25" as="geometry" />
        </mxCell>
        <mxCell id="b3uctcBHCQjBajmpuFDN-42" value="&lt;font style=&quot;font-size: 6px;&quot;&gt;rf_en&lt;/font&gt;" style="text;html=1;strokeColor=none;fillColor=none;align=center;verticalAlign=middle;whiteSpace=wrap;rounded=0;" parent="1" vertex="1">
          <mxGeometry x="620" y="80" width="20" as="geometry" />
        </mxCell>
        <mxCell id="b3uctcBHCQjBajmpuFDN-43" value="&lt;font style=&quot;font-size: 6px;&quot;&gt;br_taken&lt;/font&gt;" style="text;html=1;strokeColor=none;fillColor=none;align=center;verticalAlign=middle;whiteSpace=wrap;rounded=0;" parent="1" vertex="1">
          <mxGeometry x="626" y="70" width="20" as="geometry" />
        </mxCell>
        <mxCell id="b3uctcBHCQjBajmpuFDN-44" value="" style="endArrow=classic;html=1;rounded=0;strokeColor=#808080;" parent="1" edge="1">
          <mxGeometry width="50" height="50" relative="1" as="geometry">
            <mxPoint x="562.5" y="59.81" as="sourcePoint" />
            <mxPoint x="622.5" y="59.81" as="targetPoint" />
          </mxGeometry>
        </mxCell>
        <mxCell id="b3uctcBHCQjBajmpuFDN-45" value="" style="endArrow=classic;html=1;rounded=0;strokeColor=#808080;" parent="1" edge="1">
          <mxGeometry width="50" height="50" relative="1" as="geometry">
            <mxPoint x="562.5" y="69.67" as="sourcePoint" />
            <mxPoint x="622.5" y="69.67" as="targetPoint" />
          </mxGeometry>
        </mxCell>
        <mxCell id="b3uctcBHCQjBajmpuFDN-46" value="" style="endArrow=classic;html=1;rounded=0;strokeColor=#808080;" parent="1" edge="1">
          <mxGeometry width="50" height="50" relative="1" as="geometry">
            <mxPoint x="562.5" y="80" as="sourcePoint" />
            <mxPoint x="622.5" y="80" as="targetPoint" />
          </mxGeometry>
        </mxCell>
        <mxCell id="b3uctcBHCQjBajmpuFDN-47" value="&lt;span style=&quot;font-size: 8px;&quot;&gt;stall_if&lt;br&gt;&lt;/span&gt;" style="text;html=1;strokeColor=none;fillColor=none;align=center;verticalAlign=middle;whiteSpace=wrap;rounded=0;" parent="1" vertex="1">
          <mxGeometry x="727.5" y="40" width="30" height="10" as="geometry" />
        </mxCell>
        <mxCell id="b3uctcBHCQjBajmpuFDN-48" value="&lt;span style=&quot;font-size: 8px;&quot;&gt;stall_id_ex&lt;/span&gt;" style="text;html=1;strokeColor=none;fillColor=none;align=center;verticalAlign=middle;whiteSpace=wrap;rounded=0;" parent="1" vertex="1">
          <mxGeometry x="717.5" y="70" width="40" height="10" as="geometry" />
        </mxCell>
        <mxCell id="b3uctcBHCQjBajmpuFDN-50" value="&lt;span style=&quot;font-size: 8px;&quot;&gt;flush_id_ex&lt;br&gt;&lt;/span&gt;" style="text;html=1;strokeColor=none;fillColor=none;align=center;verticalAlign=middle;whiteSpace=wrap;rounded=0;" parent="1" vertex="1">
          <mxGeometry x="715.71" y="20" width="40" height="10" as="geometry" />
        </mxCell>
        <mxCell id="b3uctcBHCQjBajmpuFDN-51" style="edgeStyle=orthogonalEdgeStyle;rounded=0;orthogonalLoop=1;jettySize=auto;html=1;exitX=1;exitY=0.5;exitDx=0;exitDy=0;strokeColor=#FF9933;" parent="1" edge="1">
          <mxGeometry relative="1" as="geometry">
            <mxPoint x="784.75" y="24.937619047619037" as="targetPoint" />
            <mxPoint x="754.75" y="24.89" as="sourcePoint" />
          </mxGeometry>
        </mxCell>
        <mxCell id="b3uctcBHCQjBajmpuFDN-52" style="edgeStyle=orthogonalEdgeStyle;rounded=0;orthogonalLoop=1;jettySize=auto;html=1;exitX=1;exitY=0.5;exitDx=0;exitDy=0;strokeColor=#FF9933;" parent="1" edge="1">
          <mxGeometry relative="1" as="geometry">
            <mxPoint x="784.75" y="44.93761904761904" as="targetPoint" />
            <mxPoint x="754.75" y="44.89" as="sourcePoint" />
          </mxGeometry>
        </mxCell>
        <mxCell id="b3uctcBHCQjBajmpuFDN-53" style="edgeStyle=orthogonalEdgeStyle;rounded=0;orthogonalLoop=1;jettySize=auto;html=1;strokeColor=#FF9933;" parent="1" edge="1">
          <mxGeometry relative="1" as="geometry">
            <mxPoint x="786.07" y="80" as="targetPoint" />
            <mxPoint x="753.57" y="80" as="sourcePoint" />
            <Array as="points">
              <mxPoint x="776.07" y="80" />
              <mxPoint x="776.07" y="80" />
            </Array>
          </mxGeometry>
        </mxCell>
        <mxCell id="UIZ2LBOJyxjY5PGTl3IZ-3" value="&lt;span style=&quot;font-size: 6px;&quot;&gt;br_type&lt;/span&gt;" style="text;html=1;strokeColor=none;fillColor=none;align=center;verticalAlign=middle;whiteSpace=wrap;rounded=0;" parent="1" vertex="1">
          <mxGeometry x="724.71" y="499" width="25" height="10" as="geometry" />
        </mxCell>
        <mxCell id="UIZ2LBOJyxjY5PGTl3IZ-4" value="" style="endArrow=open;html=1;rounded=0;labelBackgroundColor=default;strokeColor=#808080;align=center;verticalAlign=middle;fontFamily=Helvetica;fontSize=11;fontColor=default;shape=connector;entryX=0;entryY=0.5;entryDx=0;entryDy=0;endFill=0;exitX=1.002;exitY=0.017;exitDx=0;exitDy=0;exitPerimeter=0;" parent="1" source="EuI0nip87wkuVk568HCP-27" target="UIZ2LBOJyxjY5PGTl3IZ-5" edge="1">
          <mxGeometry width="50" height="50" relative="1" as="geometry">
            <mxPoint x="365" y="597.17" as="sourcePoint" />
            <mxPoint x="445" y="597.5" as="targetPoint" />
          </mxGeometry>
        </mxCell>
        <mxCell id="UIZ2LBOJyxjY5PGTl3IZ-5" value="&lt;font&gt;br_type&lt;/font&gt;" style="text;html=1;strokeColor=none;fillColor=none;align=center;verticalAlign=middle;whiteSpace=wrap;rounded=0;fontSize=11;fontFamily=Helvetica;fontColor=#808080;" parent="1" vertex="1">
          <mxGeometry x="385" y="557.5" width="55" height="30" as="geometry" />
        </mxCell>
        <mxCell id="KH_E3FF8jMCB2uNDLjIu-1" value="" style="endArrow=classic;html=1;rounded=0;entryX=1;entryY=0.5;entryDx=0;entryDy=0;strokeColor=#1CFF14;" edge="1" parent="1" target="UIZ2LBOJyxjY5PGTl3IZ-3">
          <mxGeometry width="50" height="50" relative="1" as="geometry">
            <mxPoint x="780" y="504" as="sourcePoint" />
            <mxPoint x="815.71" y="472" as="targetPoint" />
          </mxGeometry>
        </mxCell>
        <mxCell id="KH_E3FF8jMCB2uNDLjIu-14" value="clk" style="text;html=1;strokeColor=none;fillColor=none;align=center;verticalAlign=middle;whiteSpace=wrap;rounded=0;" vertex="1" parent="1">
          <mxGeometry x="924.5" y="662.5" width="34" height="20" as="geometry" />
        </mxCell>
        <mxCell id="KH_E3FF8jMCB2uNDLjIu-15" value="rst" style="text;html=1;strokeColor=none;fillColor=none;align=center;verticalAlign=middle;whiteSpace=wrap;rounded=0;" vertex="1" parent="1">
          <mxGeometry x="930" y="720" width="23" as="geometry" />
        </mxCell>
        <mxCell id="KH_E3FF8jMCB2uNDLjIu-16" value="&lt;font style=&quot;font-size: 8px;&quot;&gt;Timer&lt;br style=&quot;&quot;&gt;Interupt&lt;/font&gt;" style="text;html=1;strokeColor=none;fillColor=none;align=left;verticalAlign=middle;whiteSpace=wrap;rounded=0;fontSize=7;fontStyle=1" vertex="1" parent="1">
          <mxGeometry x="875" y="660" width="25" height="30" as="geometry" />
        </mxCell>
        <mxCell id="KH_E3FF8jMCB2uNDLjIu-17" value="" style="endArrow=classic;html=1;rounded=0;strokeColor=#0000FF;" edge="1" parent="1" target="KH_E3FF8jMCB2uNDLjIu-14">
          <mxGeometry width="50" height="50" relative="1" as="geometry">
            <mxPoint x="1010" y="673" as="sourcePoint" />
            <mxPoint x="1031.43" y="627.5" as="targetPoint" />
          </mxGeometry>
        </mxCell>
        <mxCell id="KH_E3FF8jMCB2uNDLjIu-18" value="" style="endArrow=classic;html=1;rounded=0;strokeColor=#0000FF;" edge="1" parent="1">
          <mxGeometry width="50" height="50" relative="1" as="geometry">
            <mxPoint x="1009.5" y="720" as="sourcePoint" />
            <mxPoint x="958.5" y="720" as="targetPoint" />
            <Array as="points">
              <mxPoint x="979.5" y="720" />
            </Array>
          </mxGeometry>
        </mxCell>
        <mxCell id="KH_E3FF8jMCB2uNDLjIu-22" value="" style="endArrow=none;html=1;rounded=0;exitX=1.047;exitY=0.558;exitDx=0;exitDy=0;exitPerimeter=0;strokeColor=#33FFFF;" edge="1" parent="1" source="xwV4w1sUFIsXvJg-IXbo-36">
          <mxGeometry width="50" height="50" relative="1" as="geometry">
            <mxPoint x="680" y="660" as="sourcePoint" />
            <mxPoint x="820" y="600" as="targetPoint" />
          </mxGeometry>
        </mxCell>
        <mxCell id="KH_E3FF8jMCB2uNDLjIu-33" value="&lt;font color=&quot;#0000ff&quot;&gt;interupt&lt;/font&gt;" style="text;html=1;strokeColor=none;fillColor=none;align=center;verticalAlign=middle;whiteSpace=wrap;rounded=0;fontSize=10;fontColor=#3333FF;" vertex="1" parent="1">
          <mxGeometry x="912" y="618" width="60" height="30" as="geometry" />
        </mxCell>
        <mxCell id="KH_E3FF8jMCB2uNDLjIu-34" value="" style="endArrow=classic;html=1;rounded=0;fontColor=#0000FF;strokeColor=#0000FF;" edge="1" parent="1">
          <mxGeometry width="50" height="50" relative="1" as="geometry">
            <mxPoint x="965" y="632.57" as="sourcePoint" />
            <mxPoint x="1015" y="632.57" as="targetPoint" />
          </mxGeometry>
        </mxCell>
        <mxCell id="KH_E3FF8jMCB2uNDLjIu-47" style="edgeStyle=orthogonalEdgeStyle;rounded=0;orthogonalLoop=1;jettySize=auto;html=1;entryX=0.415;entryY=0;entryDx=0;entryDy=0;entryPerimeter=0;" edge="1" parent="1" source="b3uctcBHCQjBajmpuFDN-41" target="b3uctcBHCQjBajmpuFDN-41">
          <mxGeometry relative="1" as="geometry" />
        </mxCell>
      </root>
    </mxGraphModel>
  </diagram>
</mxfile>
